<svg xmlns="http://www.w3.org/2000/svg" viewBox="0 0 1416.4844 333">
  <defs>
    <style>
      .cls-1 {
        fill: #0e406a;
      }

      .cls-2 {
        fill: #fff;
      }
    </style>
  </defs>
  <g id="Layer_2" data-name="Layer 2">
    <g id="Layer_1-2" data-name="Layer 1">
      <g>
        <g>
          <path class="cls-1" d="M309.09,220.5h0a10.1755,10.1755,0,0,1,9.2585,14.3749A166.6908,166.6908,0,0,1,148,331.98a165.5769,165.5769,0,0,1-63-20.26q-4.575-2.565-8.96-5.43A166.5167,166.5167,0,0,1,252.2215,23.7321C293.7292,48.7086,275.983,112.5,227.54,112.5h0A81.494,81.494,0,1,0,148,245.89c.69.16,1.38.31,2.08.45.37.08.74.15,1.12.22.41.08.83.16,1.25.23a1.38,1.38,0,0,0,.2.03c.71.13,1.42.24,2.14.34.74.11,1.49.21,2.24.29a1.3664,1.3664,0,0,0,.19.02c.5.06,1,.12,1.51.16.42.04.84.08,1.26.11.94.08,1.89.14,2.84.17.52.03,1.04.05,1.57.06q1.05.03,2.1.03a81.2761,81.2761,0,0,0,61.04-27.5h8.7v-4.93a8.2989,8.2989,0,0,1,9.4751-8.2076,8.7784,8.7784,0,0,1,7.1049,8.453V220.5h11.56V186.68a8.29,8.29,0,1,1,16.58,0V220.5h11.55V157.79a8.299,8.299,0,0,1,9.4754-8.2076,8.7788,8.7788,0,0,1,7.1046,8.4531Z"/>
          <path class="cls-2" d="M248,166.5a85.9941,85.9941,0,0,1-133.96,71.36v86.7A165.6488,165.6488,0,0,1,85,311.72q-4.575-2.565-8.96-5.43V166.5a85.98,85.98,0,1,1,171.96,0Z"/>
          <circle class="cls-1" cx="162.02" cy="166.5" r="47.98"/>
          <path class="cls-2" d="M180.9609,146.3374H165.77a13.801,13.801,0,0,1,5.1553,9.3916h10.0361v4.6035h-9.9433c-.9209,9.3911-8.3789,15.376-20.1641,15.7442,7.1817,7.458,15.0078,16.8491,22.7422,26.3325h-8.84c-7.1807-8.6548-13.9024-16.6651-22.5567-25.8721v-5.7085h5.0635c9.9434,0,15.2842-4.1431,15.9287-10.4961H142.1992V155.729H162.915c-1.289-5.34-6.1689-8.01-14.1787-8.01h-6.5371v-5.9849h38.7617Z"/>
        </g>
        <g>
          <path d="M531.7466,189.0952a42.9075,42.9075,0,0,1-3.7891,16.6387,60.0035,60.0035,0,0,1-11.916,17.5727,60.7927,60.7927,0,0,1-20.7573,14.003q-12.6314,5.38-29.4336,5.3813a102.9262,102.9262,0,0,1-23.1738-2.416,65.0451,65.0451,0,0,1-18.9454-7.5234,63.8839,63.8839,0,0,1-15.65-13.4536A79.9316,79.9316,0,0,1,397.208,202.33a88.3776,88.3776,0,0,1-6.7544-20.0435,109.2026,109.2026,0,0,1-2.251-22.6245q0-19.44,5.6558-34.8154a74.2767,74.2767,0,0,1,16.2-26.3037A70.669,70.669,0,0,1,434.769,81.9038a80.0373,80.0373,0,0,1,30.2027-5.7109q19.5476,0,34.8154,7.7973,15.2644,7.8,23.3931,19.2749,8.1263,11.4779,8.1274,21.691a14.1374,14.1374,0,0,1-3.9541,9.8842,12.5344,12.5344,0,0,1-9.5547,4.2832q-6.26,0-9.39-2.9653t-6.9741-10.2139q-6.3714-11.9693-14.9917-17.9018-8.6229-5.93-21.2515-5.9307-20.0983,0-32.0146,15.2661Q421.2587,132.6446,421.26,160.76q0,18.7807,5.2719,31.2461t14.9366,18.6157q9.6627,6.1517,22.6245,6.15,14.0566,0,23.7773-6.9741t14.6621-20.483a34.7594,34.7594,0,0,1,5.1616-10.3789q3.0741-4.0077,9.8848-4.0083a13.8273,13.8273,0,0,1,9.9941,4.0635A13.5354,13.5354,0,0,1,531.7466,189.0952Z"/>
          <path d="M581.55,199.4189V224.46q0,9.1179-4.2832,13.6738a14.28,14.28,0,0,1-10.873,4.5576,13.7253,13.7253,0,0,1-10.6534-4.6128q-4.1748-4.6128-4.1733-13.6186V140.9907q0-20.2061,14.6069-20.208,7.4677,0,10.7632,4.7227t3.624,13.9477q5.38-9.2256,11.0376-13.9477,5.6557-4.7212,15.1016-4.7227a38.6676,38.6676,0,0,1,18.3413,4.7227q8.8961,4.7234,8.896,12.52a11.9063,11.9063,0,0,1-3.7891,9.061,11.757,11.757,0,0,1-8.1821,3.5694q-1.6479,0-7.9629-2.0318a37.0487,37.0487,0,0,0-11.1474-2.0322,16.3015,16.3015,0,0,0-10.7627,3.46q-4.1755,3.4592-6.48,10.2685a71.68,71.68,0,0,0-3.1851,16.2Q581.5479,185.91,581.55,199.4189Z"/>
          <path d="M715.3706,225.7773v-3.8437a66.9006,66.9006,0,0,1-11.3125,11.4219,41.6531,41.6531,0,0,1-12.9595,6.8642,52.5618,52.5618,0,0,1-16.0351,2.2515,41.4784,41.4784,0,0,1-19.4942-4.5029,32.8723,32.8723,0,0,1-13.3442-12.41q-5.6008-9.5551-5.6011-27.457V138.6846q0-9.0045,4.064-13.4541a13.8748,13.8748,0,0,1,10.7627-4.4478,14.2754,14.2754,0,0,1,10.9829,4.5029q4.1726,4.5045,4.1733,13.399v47.9946a74.04,74.04,0,0,0,1.7574,17.5171,21.0281,21.0281,0,0,0,6.3149,11.0928q4.5564,4.0107,12.3555,4.0088a25.1388,25.1388,0,0,0,14.2778-4.503,26.2917,26.2917,0,0,0,9.7744-11.7514q2.5254-6.3684,2.5264-27.8965V138.6846q0-8.8961,4.1733-13.399a14.14,14.14,0,0,1,10.8731-4.5029,13.8807,13.8807,0,0,1,10.7627,4.4478q4.062,4.4479,4.0639,13.4541v86.8735q0,8.5664-3.8989,12.85a13.8778,13.8778,0,0,1-20.2085-.1645Q715.369,233.7951,715.3706,225.7773Z"/>
          <path d="M862.7,203.4824q0,12.4123-6.04,21.252-6.0411,8.8417-17.8467,13.3989-11.8074,4.5557-28.72,4.5576-16.1448,0-27.6763-4.9424t-17.0234-12.3554q-5.4932-7.4128-5.4912-14.8814a11.5282,11.5282,0,0,1,3.5141-8.457,12.0582,12.0582,0,0,1,8.8965-3.5142q4.72,0,7.2485,2.3062a25.2941,25.2941,0,0,1,4.8321,6.48,32.8523,32.8523,0,0,0,11.0381,11.9712q6.4248,3.9536,17.5171,3.9536,9.0043,0,14.7719-4.0088,5.7657-4.0079,5.7661-9.17,0-7.9073-5.9858-11.5318-5.9876-3.6248-19.7139-6.9194a163.2419,163.2419,0,0,1-25.2055-8.0723A41.4839,41.4839,0,0,1,767.04,172.4014q-5.8227-6.9192-5.8208-17.023a30.0268,30.0268,0,0,1,5.3814-17.0234q5.38-8.0157,15.87-12.7949,10.4868-4.7777,25.3154-4.7774a83.247,83.247,0,0,1,20.9219,2.416,52.2251,52.2251,0,0,1,15.4858,6.48,32.0027,32.0027,0,0,1,9.4454,9.0059,17.6321,17.6321,0,0,1,3.24,9.6645,11.1623,11.1623,0,0,1-3.46,8.4571q-3.46,3.2943-9.83,3.2944a12.04,12.04,0,0,1-7.8525-2.6358,51.7353,51.7353,0,0,1-7.4136-7.9072,27.129,27.129,0,0,0-8.0175-7.0293q-4.6128-2.636-12.52-2.6357-8.1291,0-13.5088,3.46-5.3825,3.46-5.3818,8.6215a9.3317,9.3317,0,0,0,3.9541,7.7427,32.7868,32.7868,0,0,0,10.6533,4.9971q6.6974,1.9767,18.4507,4.8325,13.9468,3.4057,22.79,8.1274,8.8388,4.7235,13.3989,11.1475A24.72,24.72,0,0,1,862.7,203.4824Z"/>
          <path d="M910.1963,94.4238v44.4805a64.0339,64.0339,0,0,1,11.1475-10.4336,40.1465,40.1465,0,0,1,12.0263-5.7661,50.4227,50.4227,0,0,1,14.168-1.9219,41.57,41.57,0,0,1,20.2627,4.8325,37.53,37.53,0,0,1,18.1767,26.084,95.0666,95.0666,0,0,1,1.0977,15.3208V224.46q0,9.0074-4.1182,13.6186a13.9358,13.9358,0,0,1-10.9277,4.6128q-14.8272,0-14.8272-18.2314v-50.63q0-14.3862-4.2832-22.13t-16.2539-7.7431a24.371,24.371,0,0,0-14.4423,4.5581,27.4279,27.4279,0,0,0-9.61,12.4653q-2.417,6.7-2.416,23.8325V224.46q0,8.8959-4.0088,13.5639-4.0107,4.6671-11.1475,4.6675-14.8263,0-14.8266-18.2314V94.4238q0-9.1141,3.8989-13.6733,3.8972-4.5564,10.9277-4.5576,7.1382,0,11.1475,4.6128T910.1963,94.4238Z"/>
          <path class="cls-1" d="M1123.1436,177.2339h-29.8731V222.812q0,9.7764-4.6133,14.8272a16.2537,16.2537,0,0,1-23.5029.0546q-4.5043-4.9965-4.5029-14.6621V98.9268q0-10.7622,4.9424-15.3755t15.705-4.6128h41.8448q18.558,0,28.5546,2.8554a42.5382,42.5382,0,0,1,17.0782,9.1158,41.1112,41.1112,0,0,1,10.9277,15.5952,54.9206,54.9206,0,0,1,3.7344,20.7573q0,24.6036-15.1563,37.2866Q1153.1255,177.2337,1123.1436,177.2339Zm-7.9082-73.8042h-21.9649v49.2026h21.9649q11.5326,0,19.2753-2.416a22.4536,22.4536,0,0,0,11.8057-7.9077q4.062-5.49,4.0645-14.3872,0-10.6517-6.2608-17.3526Q1137.09,103.4308,1115.2354,103.43Z"/>
          <path class="cls-1" d="M1268.6064,225.7773a92.7878,92.7878,0,0,1-21.0322,12.6851,58.8174,58.8174,0,0,1-22.789,4.2285,43.19,43.19,0,0,1-20.2627-4.5576,33.3269,33.3269,0,0,1-13.4541-12.356,32.0435,32.0435,0,0,1-4.7227-16.913,30.2745,30.2745,0,0,1,7.7979-20.9771q7.7973-8.6748,21.416-11.6416,2.8549-.6591,14.1679-2.9653,11.31-2.3064,19.3848-4.2285,8.0713-1.92,17.5176-4.6675-.5508-11.8616-4.7783-17.4077-4.2291-5.5444-17.5166-5.5464-11.4243,0-17.1885,3.185a27.9313,27.9313,0,0,0-9.8848,9.5547,101.5013,101.5013,0,0,1-5.82,8.4019q-1.7035,2.0338-7.3037,2.0317a12.7714,12.7714,0,0,1-8.7315-3.24,10.5451,10.5451,0,0,1-3.6787-8.292q0-7.9073,5.6006-15.376,5.6016-7.467,17.4629-12.3,11.8608-4.8318,29.544-4.8325,19.768,0,31.081,4.6675,11.31,4.67,15.98,14.7719,4.667,10.106,4.668,26.7979,0,10.5432-.0547,17.9018-.0572,7.3594-.165,16.3643a60.2732,60.2732,0,0,0,2.8007,17.6274q2.8008,9.1714,2.8,11.8062,0,4.6128-4.3379,8.4019a14.54,14.54,0,0,1-9.8291,3.789q-4.6128,0-9.1162-4.3379A64.2906,64.2906,0,0,1,1268.6064,225.7773ZM1266.63,182.396a150.8594,150.8594,0,0,1-19.1651,5.1069q-12.5771,2.6925-17.4082,3.9536a23.6944,23.6944,0,0,0-9.2255,4.9424q-4.3932,3.68-4.3926,10.2686a15.2024,15.2024,0,0,0,5.1621,11.5869q5.1606,4.7777,13.5088,4.7773a35.1388,35.1388,0,0,0,16.4189-3.8989,26.01,26.01,0,0,0,11.0371-10.0488q4.062-6.8086,4.0645-22.4048Z"/>
          <path class="cls-1" d="M1343.998,246.4253l2.7461-6.7-36.9023-92.9141q-3.4057-8.0155-3.4043-11.6416a13.6242,13.6242,0,0,1,1.9766-7.1387,14.7424,14.7424,0,0,1,5.4365-5.2719,14.3024,14.3024,0,0,1,7.1933-1.9766q6.4791,0,9.7745,4.1187t5.8212,11.8061l25.37,73.8042,24.0517-68.6421a118.634,118.634,0,0,1,5.1621-13.07q2.3071-4.7205,4.8877-6.37a13.5658,13.5658,0,0,1,7.3037-1.6475,12.8631,12.8631,0,0,1,6.5342,1.812,12.6674,12.6674,0,0,1,4.833,4.8872,13.2045,13.2045,0,0,1,1.7022,6.48q-.441,2.0874-1.4278,5.9307-.9886,3.8459-2.416,7.7978L1373.542,250.0493q-5.0536,13.5089-9.8848,21.1968a32.55,32.55,0,0,1-12.7949,11.8066q-7.9644,4.1184-21.4717,4.1182-13.1792,0-19.7685-2.8555-6.5889-2.8572-6.59-10.4336,0-5.1635,3.13-7.9624,3.13-2.8008,9.2813-2.8007a17.1142,17.1142,0,0,1,4.7226.6591,22.4127,22.4127,0,0,0,4.9414.6592,17.8565,17.8565,0,0,0,8.128-1.5376,14.2437,14.2437,0,0,0,5.3261-5.3266A81.9416,81.9416,0,0,0,1343.998,246.4253Z"/>
        </g>
      </g>
    </g>
  </g>
</svg>
