<svg xmlns="http://www.w3.org/2000/svg" viewBox="0 0 319.2631 333">
  <defs>
    <style>
      .cls-1 {
        fill: #0e406a;
      }

      .cls-2 {
        fill: #fff;
      }
    </style>
  </defs>
  <g id="Layer_2" data-name="Layer 2">
    <g id="Layer_1-2" data-name="Layer 1">
      <g>
        <path class="cls-1" d="M309.09,220.5h0a10.1755,10.1755,0,0,1,9.2585,14.3749A166.6908,166.6908,0,0,1,148,331.98a165.5769,165.5769,0,0,1-63-20.26q-4.575-2.565-8.96-5.43A166.5167,166.5167,0,0,1,252.2215,23.7321C293.7292,48.7086,275.983,112.5,227.54,112.5h0A81.494,81.494,0,1,0,148,245.89c.69.16,1.38.31,2.08.45.37.08.74.15,1.12.22.41.08.83.16,1.25.23a1.38,1.38,0,0,0,.2.03c.71.13,1.42.24,2.14.34.74.11,1.49.21,2.24.29a1.3664,1.3664,0,0,0,.19.02c.5.06,1,.12,1.51.16.42.04.84.08,1.26.11.94.08,1.89.14,2.84.17.52.03,1.04.05,1.57.06q1.05.03,2.1.03a81.2761,81.2761,0,0,0,61.04-27.5h8.7v-4.93a8.2989,8.2989,0,0,1,9.4751-8.2076,8.7784,8.7784,0,0,1,7.1049,8.453V220.5h11.56V186.68a8.29,8.29,0,1,1,16.58,0V220.5h11.55V157.79a8.299,8.299,0,0,1,9.4754-8.2076,8.7788,8.7788,0,0,1,7.1046,8.4531Z"/>
        <path class="cls-2" d="M248,166.5a85.9941,85.9941,0,0,1-133.96,71.36v86.7A165.6488,165.6488,0,0,1,85,311.72q-4.575-2.565-8.96-5.43V166.5a85.98,85.98,0,1,1,171.96,0Z"/>
        <circle class="cls-1" cx="162.02" cy="166.5" r="47.98"/>
        <path class="cls-2" d="M180.9609,146.3374H165.77a13.801,13.801,0,0,1,5.1553,9.3916h10.0361v4.6035h-9.9433c-.9209,9.3911-8.3789,15.376-20.1641,15.7442,7.1817,7.458,15.0078,16.8491,22.7422,26.3325h-8.84c-7.1807-8.6548-13.9024-16.6651-22.5567-25.8721v-5.7085h5.0635c9.9434,0,15.2842-4.1431,15.9287-10.4961H142.1992V155.729H162.915c-1.289-5.34-6.1689-8.01-14.1787-8.01h-6.5371v-5.9849h38.7617Z"/>
      </g>
    </g>
  </g>
</svg>
