<svg xmlns="http://www.w3.org/2000/svg" viewBox="0 0 850.6499 410.0705">
  <defs>
    <style>
      .cls-1 {
        fill: #fff;
      }

      .cls-2 {
        fill: #0e406a;
      }
    </style>
  </defs>
  <g id="Layer_2" data-name="Layer 2">
    <g id="Layer_1-2" data-name="Layer 1">
      <g>
        <g>
          <path class="cls-1" d="M672.1975,272.2785c-11.1693-.0623-21.1832-2.4266-29.9858-8.8164A48.5728,48.5728,0,0,1,626.44,243.715c-5.6091-12.405-7.1212-25.5581-6.9706-39.0182.1447-12.9385,2.9271-25.1713,9.6968-36.2905,8.39-13.78,20.3955-22.009,36.7371-23.4252,9-.78,17.7864-.1194,26.291,3.188a40.2507,40.2507,0,0,1,18.3775,14.033,85.2916,85.2916,0,0,1,7.8634,13.5684c2.9984,6.3491,4.3739,13.2354,5.1389,20.2021a110.78,110.78,0,0,1,.1257,23.9539c-1.1557,10.7783-4.0981,20.993-10.11,30.1271-9.1646,13.9251-22.1374,21.2658-38.79,22.0955Zm20.0822-60.83c.0465-10.2765-.1377-21.6724-1.7894-33.0009-1.0691-7.3323-2.64-14.4873-6.2728-21.0578-5.4027-9.7726-17.4392-10.9881-23.7865-1.4485a38.4469,38.4469,0,0,0-5.241,12.3069,128.6248,128.6248,0,0,0-3.5041,28.7429c-.2217,14.6176-.3215,29.2274,1.9513,43.7389.9247,5.904,1.9526,11.7838,4.5762,17.2023,3.1032,6.409,7.8852,9.9549,14.8486,9.4709,7.24-.5032,11.1555-4.6309,13.8731-12.0583,3.2228-8.8081,3.8986-18.1283,4.6084-27.3917C691.9349,222.8436,692.0122,217.71,692.28,211.4489Z"/>
          <path class="cls-1" d="M562.4055,202.7484c9.8954.4766,19.3021,2.5343,27.5605,8.3592,8.0195,5.6563,12.3865,13.2164,12.47,23.2131.0722,8.7006-2.2727,16.4718-8.1245,22.9882a40.2293,40.2293,0,0,1-17.2563,11.1405,87.2585,87.2585,0,0,1-43.04,3.5371,34.3953,34.3953,0,0,1-17.8848-8.34,24.9039,24.9039,0,0,1-8.6289-18.4339,31.2389,31.2389,0,0,1,.9633-9.8744c3.09-9.9153,12.6715-14.2585,22.4623-10.5781,6.2312,2.3423,9.4848,7.6193,9.0546,14.6856-.3551,5.8341-4.5735,10.6014-10.6243,12.1826a30.3388,30.3388,0,0,0-5.9627,2.0786c-4.3875,2.2058-4.6512,6.7751-.48,9.3634,10.0706,6.2493,26.6591,6.9823,36.2326-4.26a31.2174,31.2174,0,0,0,7.331-17.6556c.8136-8.4534.6931-16.7992-3.38-24.5887a18.0007,18.0007,0,0,0-10.2756-8.712c-5.7667-2.1-11.7653-2.4091-17.81-2.4621-1.1772-.01-2.7011.54-2.6121-1.6913.1209-3.03.086-2.95,2.7139-3.1507a75.3689,75.3689,0,0,0,10.4476-1.2214,16.8129,16.8129,0,0,0,10.59-7.7493c5.556-8.63,6.7763-17.9082,3.4069-27.5859-2.7641-7.939-9.9242-14.2611-19.5955-13.8849-4.939.1921-9.763.6762-13.92,3.6a11.3945,11.3945,0,0,0-3.1866,3.5009,4.7081,4.7081,0,0,0,2.2516,6.3528,68.3877,68.3877,0,0,0,6.6246,2.5446,10.9488,10.9488,0,0,1,7.7556,9.7884c.5141,4.6792-.6783,8.9085-4.768,11.6656-10.3212,6.9585-22.9722.5539-24.3043-11.7713-1.415-13.0915,6.7319-23.3416,17.8336-28.0031a41.4958,41.4958,0,0,1,15.3676-3.0706c10.3518-.2125,20.6463.3473,30.6038,3.5426,6.8021,2.1828,12.8354,5.5732,16.8109,11.7858,4.7662,7.4478,5.2022,19.8916-.2506,27.9462-6.0037,8.8684-14.7006,12.7675-24.861,14.2433Q564.1653,202.4884,562.4055,202.7484Z"/>
          <path class="cls-2" d="M315.8132,0c-.9661,2.7746-1.8962,5.5624-2.9048,8.3216Q307.37,23.4778,301.79,38.6193c-5.9644,16.2957-11.8413,32.624-17.897,48.8858-4.3354,11.6429-8.9016,23.2-13.3725,34.7927-.1743.452-.4268.8737-.7783,1.5827-1.3533-1.7791-2.5691-3.3207-3.7254-4.9058A147.4977,147.4977,0,0,0,225.9729,81.52a146.9973,146.9973,0,0,0-73.3973-23.0325,146.85,146.85,0,0,0-90.289,26.8275,146.7775,146.7775,0,0,0-60.5027,98.44A128.75,128.75,0,0,0,.0107,204.8013a158.9181,158.9181,0,0,0,2.3508,24.4615,170.4963,170.4963,0,0,0,5.9891,23.816A136.4305,136.4305,0,0,0,25.3755,287.16,148.1132,148.1132,0,0,0,80.07,335.79a136.1809,136.1809,0,0,0,29.67,11.5913c6.2656,1.557,12.6584,2.6141,19.0117,3.8014a76.6021,76.6021,0,0,0,8.1467,1.0972c2.4133.1867,4.8848-.1848,7.2668.1471,1.9073.2656,3.6932,1.3091,5.5816,1.8316a14.0411,14.0411,0,0,0,3.8843.5142,14.7569,14.7569,0,0,0,3.9746-.6185,17.2382,17.2382,0,0,0,2.7956-1.4784c.4253-.2209.958-.5939,1.316-.4847.3547.1083.673.7029.7927,1.1427.292,1.0738.1084,2.7226.7612,3.1464.9373.6085,2.447.4093,3.7139.4228,3.7209.04,7.4428.013,11.1643.0167a11.7549,11.7549,0,0,1,1.5376.047c3.4985.4672,3.4975.474,5.2763-2.2085-.976,2.8917-1.9138,5.7969-2.9343,8.6728q-7.9365,22.3635-15.9148,44.7119c-.2353.66-.5686,1.2856-.8564,1.9271l685.3921,0V0ZM743.4353,52.3673c.1208-1.98.051-3.9745.0146-5.9618-.02-1.1037.3162-1.5691,1.5506-1.5632,10.8374.0514,21.675.0387,32.5124.0314.9138-.0007,1.6367.0545,1.697,1.2623.322,6.4416-1.407,12.1594-5.8706,16.9315-2.1623,2.3117-2.1477,2.29-.4311,5.0546q5.3173,8.5652,10.5835,17.1617a18.4544,18.4544,0,0,1,.8342,1.8385c-3.7266,0-7.1577.0385-10.5857-.0511-.4058-.0106-.8933-.66-1.1746-1.1175-3.05-4.96-6.1018-9.9194-9.0686-14.9291-.7741-1.3073-1.5781-1.959-3.2068-1.6881a29.0574,29.0574,0,0,1-4.6042.136c-2.69.0123-2.7029.0009-2.7112,2.7782-.0124,4.2323-.091,8.4672.0349,12.6958.0569,1.9071-.5857,2.4333-2.4289,2.2936-2.2823-.1729-4.5877-.0414-6.9754-.0414-.0581-.6324-.1318-1.0616-.132-1.4908-.0069-7.9516.0422-15.9037-.0428-23.8544-.0178-1.6756.5533-2.01,2.0994-1.9768,4.4226.0962,8.85.0817,13.2732-.0051a10.4284,10.4284,0,0,0,7.3491-3.27,15.68,15.68,0,0,0,1.3389-1.8492,8.8974,8.8974,0,0,0-1.3189-.2382c-6.8613.0015-13.7234-.0348-20.5835.0659C743.8615,54.6054,743.3342,54.028,743.4353,52.3673ZM745.4887,309.39c.0769,4.6154.0723,9.2332.0249,13.8491-.0136,1.3462.1238,2.278,1.814,2.1235.3257-.03.6963.4354,1.0461.6722-.3549.1729-.7077.4906-1.0651.4963-4.1026.0659-8.2061.1061-12.3089.0849-.46-.0023-.9179-.4246-1.3769-.6521.4665-.2885.9362-.8223,1.3994-.8166,1.1274.0139,1.4675-.47,1.4534-1.4924-.0821-5.9588-.07-11.92-.25-17.8758-.0808-2.6769-2.8742-4.416-5.5891-3.7362a5.3164,5.3164,0,0,0-3.928,4.9682q-.0021,7.7906-.0007,15.581,0,1.2317,0,2.4655l2.98.5959q-.034.2895-.0686.5789c-.2092.0975-.4172.2776-.6277.28-4.23.0545-8.4614.1111-12.6919.0919-.4194-.0019-.8369-.4914-1.2548-.7547.3755-.2306.7475-.65,1.1269-.6569,1.2029-.021,1.5171-.6341,1.5139-1.7094-.019-6.8607-.03-13.7215.01-20.582.0078-1.3246-.6372-1.6153-1.7739-1.6664-.3391-.0153-.6553-.5363-.982-.8255.3352-.2092.6663-.5925,1.0061-.6,3.2027-.0747,6.4107-.172,9.6075-.0379.602.0252,1.1623,1.0463,1.5,1.3736,2.5164-.6762,5.0855-1.828,7.7134-1.9834C741.7724,298.7471,745.3711,302.3316,745.4887,309.39ZM709.9409,52.1992a68.5567,68.5567,0,0,1,3.4184-6.2192c.9854-1.6632,2.5613-1.65,3.4978.03q9.1626,16.4315,18.2854,32.8849c1.1812,2.1249,2.3775,4.2414,3.5486,6.3717.2659.4834.4556,1.0085.8533,1.9037-3.8728,0-7.3242.06-10.7695-.0578a2.5568,2.5568,0,0,1-1.6905-1.2495c-4.4541-7.92-8.8408-15.8784-13.25-23.8237-1.3027-2.3474-2.7236-4.6367-3.8811-7.0528A3.69,3.69,0,0,1,709.9409,52.1992Zm-3.9732,7.0441c2.09,3.7041,3.9273,6.8283,5.59,10.0425.2636.51-.0987,1.5105-.439,2.1394q-3.9246,7.25-7.9863,14.4255c-.3072.5426-.9558,1.2466-1.4654,1.2626-3.5075.1107-7.02.0582-11.2712.0582C695.69,77.6763,700.6948,68.7006,705.9677,59.2433ZM686.08,85.7388c-.0506.5156-.8269,1.3746-1.2737,1.3767-11.989.0555-23.9788.02-35.9683-.0044-.0552,0-.1106-.0517-.4709-.2315,0-2.79,0-5.6007,0-8.4113,0-5.5147.0315-11.03-.0237-16.544-.0141-1.4022.2525-2.0334,1.8894-2.0157q15.1.1634,30.2014.0912c1.7591-.0091,2.23.5535,2.1011,2.2152a33.0575,33.0575,0,0,0-.0005,5.5727c.15,1.63-.6528,1.81-1.9184,1.7984-6.7949-.0649-13.5918-.0251-20.3838-.1907-2.0186-.0491-2.6214.64-2.4375,2.53a22.2184,22.2184,0,0,1,.0132,4.0353c-.1375,1.5889.5854,1.96,2.0183,1.9522,7.9514-.0422,15.904.04,23.8545-.0628,1.9553-.0252,2.6552.6074,2.53,2.5108C686.0937,82.1494,686.2531,83.9591,686.08,85.7388Zm-36.0071-40.665c2.0478.06,4.0986.02,6.1482.02,9.1587-.0008,18.3183.0544,27.4758-.0488,1.9932-.0224,2.6111.6789,2.5034,2.5354-.0962,1.66-.06,3.3305-.0049,4.9939.0486,1.4632-.53,2.0116-2.0366,1.9936-5.7-.0682-11.4-.0274-17.1-.0274v.0268c-5.5721,0-11.1446-.0355-16.7161.0243-1.4434.0154-2.1-.3563-2.001-1.9313a49.8753,49.8753,0,0,0-.0019-5.761C648.2685,45.5615,648.7356,45.0349,650.0725,45.0738ZM587.63,42.3777c.09-.3217.9551-.6034,1.4622-.6047Q602.66,41.74,616.2285,41.8a6.5537,6.5537,0,0,1,1.2175.3054c-.5574,2.0237-1.0388,3.992-1.6853,5.9046-.1116.33-.917.5675-1.4163.5963-1.3884.08-2.7846.0278-4.4165.0278.429,1.3707.6824,2.4227,1.1026,3.4034a2.0237,2.0237,0,0,0,1.0823.8843,3.8345,3.8345,0,0,0,1.3335.0736c4.1342.0227,4.0043-.0076,3.0722,4.1491-.48,2.1415-1.3562,3.1555-3.6042,2.8122-.9136-.1395-1.722-.0088-2.0491,1.1832-1.4587,5.3175-5.23,8.1408-10.3816,9.42-.2385.0591-.4636.1724-1.0024.3776l13.25,15.8246a8.3035,8.3035,0,0,1-1.5755.4079c-2.7588.0245-5.5214.09-8.2739-.0433a3.5352,3.5352,0,0,1-2.2458-1.0925c-3.84-4.3783-7.3758-9.0456-11.4441-13.1935-2.6436-2.6953-2.57-5.5958-2.3208-9.0735,1.695,0,3.34.0533,4.9792-.0146a26.6,26.6,0,0,0,5.1209-.4532,4.6262,4.6262,0,0,0,3.6528-3.4639c-1.6926,0-3.2671,0-4.8418,0-2.6948.0006-5.39-.0418-8.0837.0208-1.3387.0312-1.8662-.2171-1.4661-1.7536,1.3289-5.0994,1.2744-5.1121,6.5425-5.1037q3.6309.0059,7.2619.0007.16-.3276.32-.6551c-1.0349-.6509-2-1.6629-3.1189-1.8772a54.7846,54.7846,0,0,0-7.0464-.6344c-1.3271-.0791-2.6628-.0143-4.354-.0143C586.4587,47.1472,586.9665,44.7407,587.63,42.3777Zm32.5044,70.4528a9.8758,9.8758,0,1,1-9.582-10.1927A9.8456,9.8456,0,0,1,620.134,112.8305Zm-36.86-10.2839c4.8733-.0064,9.7481.0741,14.62-.0173,2.2087-.0414,1.7561,1.38,1.8564,2.68.1157,1.5-.4282,2.0593-1.9577,1.9931-2.3687-.1027-4.7449-.0271-7.118-.0271l0,.1073c-2.4356,0-4.8721-.0359-7.3066.013-1.5594.0313-1.6338-.9912-1.5181-2.0616C581.9624,104.1826,581.1728,102.5494,583.2736,102.5466Zm9.82,13.4133c.0024,1.6032-.0547,3.2091.0188,4.8089.0715,1.5545-.938,1.7134-2.0083,1.5551-1.0669-.1577-2.7954.7186-2.7627-1.5619q.0688-4.8086-.0222-9.6189c-.04-1.9786,1.3225-1.6693,2.5119-1.6848,1.1743-.0152,2.3938-.1474,2.2825,1.6929C593.0171,112.7487,593.0935,114.3566,593.0935,115.96Zm-26.5144-13.4213c2.5617-.001,5.1242-.0366,7.6848.0178a5.6245,5.6245,0,0,1,5.8506,5.7819c-.0247,3.2713-2.4849,5.6419-5.9558,5.7376-.128.0036-.2564-.0048-.3841.0031-1.6982.1059-4.0676-.4118-4.91.4925-.886.951-.3506,3.2628-.3655,4.9806-.023,2.5888-1.4807,3.65-3.939,2.675a1.9847,1.9847,0,0,1-.7778-1.5016c-.1-1.6592-.0366-3.328-.0366-4.993h.0075q0-1.4409,0-2.8819c.0008-3.4969.001-3.4975,3.5938-3.497,2.0493,0,4.1033.0785,6.1453-.0418.6147-.0363,1.197-.6217,1.7941-.9556-.6037-.3915-1.194-1.0941-1.8132-1.1205a76.81,76.81,0,0,0-7.8706.0329c-1.5276.0919-1.9072-.502-1.8926-1.8634C563.7409,102.5485,563.71,102.54,566.5791,102.5386Zm-9.6033,1.9794c-.04-1.1915.1218-2.1595,1.5613-1.9932,1.2448.1438,3.23-.856,3.1479,1.7765-.0561,1.7939-.0107,3.591-.0107,5.3867l.042,0c0,1.4754-.0479,2.9525.0093,4.4257.1562,4.04-2.2134,6.2657-5.59,7.65a9.9629,9.9629,0,0,1-10.6243-2.4807,7.5432,7.5432,0,0,1-1.7473-5.3494c-.0718-3.1425.0457-6.29-.0686-9.4306-.0705-1.9367,1.0393-1.9773,2.4529-1.987,1.4434-.01,2.47.0771,2.3662,2.0215-.1509,2.8149-.0522,5.6447-.0156,8.4676a4.3918,4.3918,0,0,0,4.1528,4.6386,4.6654,4.6654,0,0,0,4.43-4.4732C557.156,110.2887,557.0732,107.4006,556.9758,104.518ZM513.8921,46.3306c-.0831-1.1764.3369-1.4734,1.3823-1.4713q16.36.0342,32.7192.025c1.3042-.0014,1.6829.4575,1.7471,1.8195.35,7.4348-2.3506,13.4948-8.1162,18.4091L554.903,86.8942a17.2586,17.2586,0,0,1-1.9939.278c-2.3093.03-4.6264-.0979-6.9262.0547a3.3151,3.3151,0,0,1-3.3872-1.9156c-2.85-4.7843-5.7918-9.5139-8.6316-14.3039A2.8283,2.8283,0,0,0,530.73,69.36a30.1794,30.1794,0,0,1-5.1831.1008c-1.5452-.04-2.1475.5616-2.1165,2.1582.0881,4.5533-.0027,9.11.0818,13.6635.0281,1.5225-.4673,2.0124-1.9966,1.9343-2.4739-.1263-4.959-.034-7.5269-.034,0-6.5692,0-12.904,0-19.2388,0-1.7963.03-3.5933-.01-5.3888-.06-2.6476-.0811-2.645,2.6423-2.6427,3.9778.0034,7.9556.0328,11.9329-.0039,3.8967-.0359,6.9787-1.6856,9.5986-5.1176-1.0342-.1035-1.7456-.2355-2.4575-.2366-6.5439-.0105-13.0884-.051-19.6311.042-1.7918.0255-2.3774-.4579-2.1709-2.3114A33.1115,33.1115,0,0,0,513.8921,46.3306ZM522.914,263.07c10.0706,6.2493,26.659,6.9823,36.2324-4.26a31.2175,31.2175,0,0,0,7.3311-17.6556c.8137-8.4533.6931-16.7993-3.38-24.5887a18.0005,18.0005,0,0,0-10.2757-8.712c-5.7666-2.1-11.7651-2.4091-17.81-2.4621-1.1773-.01-2.7012.54-2.6121-1.6913.1209-3.03.0859-2.95,2.7139-3.1507a75.3675,75.3675,0,0,0,10.4475-1.2214,16.8134,16.8134,0,0,0,10.59-7.7493c5.5559-8.63,6.7764-17.9082,3.4068-27.5859-2.7639-7.939-9.9241-14.2611-19.5952-13.8849-4.9393.1921-9.7632.6761-13.92,3.6a11.3952,11.3952,0,0,0-3.1868,3.5009,4.7083,4.7083,0,0,0,2.2517,6.3528,68.3859,68.3859,0,0,0,6.6245,2.5446,10.9484,10.9484,0,0,1,7.7556,9.7884c.5142,4.6792-.6782,8.9085-4.7678,11.6656-10.3213,6.9585-22.9724.5538-24.3044-11.7713-1.4151-13.0915,6.7319-23.3415,17.8335-28.0032a41.4966,41.4966,0,0,1,15.3677-3.0705c10.3518-.2125,20.6462.3473,30.6037,3.5426,6.8023,2.1827,12.8355,5.5732,16.811,11.7857,4.7662,7.4479,5.2022,19.8917-.2507,27.9463-6.0036,8.8684-14.7,12.7676-24.8608,14.2433q-1.7549.2549-3.5149.5149c9.8952.4766,19.3022,2.5343,27.5605,8.3591,8.02,5.6564,12.3865,13.2165,12.47,23.2132.0723,8.7005-2.2727,16.4718-8.1245,22.9882a40.2282,40.2282,0,0,1-17.2563,11.14,87.2579,87.2579,0,0,1-43.04,3.5372,34.3972,34.3972,0,0,1-17.8848-8.34,24.9054,24.9054,0,0,1-8.6289-18.434,31.2444,31.2444,0,0,1,.9634-9.8743c3.09-9.9153,12.6714-14.2585,22.4624-10.5781,6.2312,2.3423,9.4846,7.6193,9.0545,14.6856-.3553,5.8341-4.5735,10.6013-10.6243,12.1826a30.3311,30.3311,0,0,0-5.9626,2.0786C519.0068,255.9122,518.7429,260.4814,522.914,263.07ZM585.37,323.3454c-.03,1.2941.1919,2.1247,1.7519,2.0034.4083-.0317.8472.33,1.272.5108l-.145.553H573.708q-.1069-.2685-.2134-.5371a4.98,4.98,0,0,1,1.47-.6614c1.0711-.099,1.4051-.6252,1.4021-1.63-.0193-6.86-.0295-13.7206.0066-20.5807.0068-1.2567-.56-1.6985-1.7124-1.7845-.3533-.0264-.6829-.3708-1.0234-.57.34-.2789.6731-.79,1.021-.8,3.2651-.0976,6.5339-.1561,9.7983-.0811.3667.0085.9556.8826,1.02,1.4069a33.1777,33.1777,0,0,1,.0489,3.9124,21.4117,21.4117,0,0,1,1.435-3,8.2335,8.2335,0,0,1,9.6865-2.5189c1.7569.8284,2.5071,2.4921,2.1934,4.8647a4.4257,4.4257,0,0,1-3.5132,3.6377,4.104,4.104,0,0,1-4.37-2.0807c-.1594-.2762-.228-.6083-.4043-.87-.468-.6962-.9719-1.3682-1.4614-2.05-.6219.6828-1.62,1.2792-1.8,2.0636a88.2709,88.2709,0,0,0-1.855,10.14C585.1455,317.9344,585.4321,320.6542,585.37,323.3454Zm-50.7979-10.0906a13.4477,13.4477,0,0,1-13.3244,13.98c-10.2854.2072-16.16-5.28-16.0916-14.5576.0581-7.8077,6.5445-13.659,15.0659-13.5908C528.76,299.1544,534.6311,304.9518,534.5717,313.2548ZM507.851,85.838a1.8868,1.8868,0,0,1-1.3061,1.2937c-11.8655.0589-23.7317.0314-35.5977.0122a4.344,4.344,0,0,1-.7634-.1819c-.0352-.667-.09-1.2329-.0908-1.799-.0061-7.6969.0481-15.3944-.0447-23.09-.0207-1.7427.5635-2.1737,2.2044-2.16q15.0079.1284,30.0175.088c1.48-.0023,2.0584.4493,1.98,1.998-.12,2.3593-.0315,4.7292-.0315,7.3251h-24.624c0,2.7461-.0625,5.2767.0847,7.7951.0171.2927,1.1946.7346,1.8372.74,6.4138.0559,12.8283.028,19.2424.0392,1.9238.0034,3.8555-.0331,5.7654.1432a1.91,1.91,0,0,1,1.34,1.2625A49.8573,49.8573,0,0,1,507.851,85.838ZM484.2439,322.2889c-3.7144-6.2746-6.9217-12.85-10.3145-19.3137-.5124-.976-.87-2.0169-2.3308-1.7447-.2236.0416-.5361-.3947-.8076-.61.2837-.2686.5644-.7679.8515-.7714q7.0129-.0863,14.0269-.0252c.4243.0044.8433.5142,1.6277,1.0261l-3.1089.8167c2.3647,4.78,4.6367,9.3735,7.134,14.4216,2.1446-5.1366,4.07-9.7488,6.1931-14.8335a31.03,31.03,0,0,1-3.3049-.0381c-.3652-.0423-.68-.5159-1.0183-.7928.3408-.2064.6787-.5859,1.0227-.5916q3.94-.0648,7.8814.0218c.3418.0076.675.4,1.0122.6137-.2928.26-.6343.7824-.8711.7387-3.0093-.5548-3.4214,1.8284-4.2415,3.7034-4.2317,9.6743-8.37,19.39-12.6946,29.0227-1.6985,3.7831-4.6941,5.7754-9.0683,5.3831-2.4856-.2229-4.3592-1.3806-4.8528-3.3662a4.9141,4.9141,0,0,1,2.2712-5.6134,5.9029,5.9029,0,0,1,6.3687,1.3544c2.71,3.0575,2.7388,2.8864,4.7012-.7755C486.4126,327.759,486.0393,325.3216,484.2439,322.2889Zm-39.1375-16.4608c-.0986-2.5981-2.3459-4.097-4.9783-3.8546a5.2007,5.2007,0,0,0-4.5134,4.6154q-.0128,8.3716-.0049,16.7434c0,.5644.0572,1.1289.0894,1.7264l2.8926.6492q-.0345.2952-.0684.59a8.1861,8.1861,0,0,1-1.3745.2487c-3.7842.0475-7.5689.1015-11.3525.06a5.6268,5.6268,0,0,1-1.8277-.7271c.572-.2353,1.1421-.4754,1.7173-.7027.1755-.0694.365-.1037.7507-.21.0574-.8859.1685-1.8236.1707-2.7616.0151-6.2225-.01-12.4451.0205-18.6674.0068-1.36-.0786-2.4727-1.8931-2.3332-.2431.0188-.52-.4022-.7817-.62.2959-.2473.585-.7.8884-.71,3.2676-.1079,6.54-.225,9.8045-.1293.5832.017,1.1384.995,1.4775,1.3139,2.4255-.6387,4.9573-1.758,7.5425-1.8993,7.0713-.3865,10.6323,3.1552,10.7351,10.2285.0662,4.5538.0281,9.1092.0364,13.6638.0009.6338,0,1.2676,0,2.0566a8.6454,8.6454,0,0,1,.9734.1974c.6211.2177,1.2329.4619,1.8481.6956a7.1768,7.1768,0,0,1-1.8066.5276c-3.6548.0779-7.3118.1179-10.967.08a6.7118,6.7118,0,0,1-1.9639-.6664c.6384-.2572,1.2732-.5236,1.9167-.7666a5.22,5.22,0,0,1,.688-.1673c.1065-.158.2354-.26.2344-.3607C445.301,318.3751,445.3447,312.0963,445.1064,305.8281Zm1.0274-41.3047a29.3348,29.3348,0,0,1-12.3484-14.7884c-2.6949-7.0525-5.1907-14.1931-8.2083-21.1054a48.13,48.13,0,0,0-6.17-9.8379c-1.2195-1.5842-3.2759-2.58-5.07-3.6467-1.29-.7662-2.3081-3.837-1.2866-4.9129a2.8955,2.8955,0,0,1,1.748-.4419c4.7856-.3166,9.6326-.2268,14.3462-.9792,6.6931-1.0686,12.3733-4.2243,15.9177-10.2992a28.51,28.51,0,0,0,3.4861-16.3032c-.021-.3834-.8867-1.0093-1.38-1.0295-2.5623-.1045-5.1306-.0493-7.6971-.0493-8.9182,0-17.8364-.0275-26.7541.0294-1.4128.009-2.0315-.3681-1.88-1.8358.1357-1.3133-.4917-2.9054,1.8974-2.8881,10.9063.079,21.813.033,32.7193.0963,2.8784.0167,2.8757.1145,2.3139-2.662a23.138,23.138,0,0,0-6.1757-12.3376c-4.418-4.3723-9.9505-5.9112-15.9244-6.1784-4.1626-.1862-8.3369-.1941-12.5044-.1454-1.7209.02-2.4218-.468-2.3459-2.2957.0666-1.6034.12-2.56,2.2351-2.5543q39.7464.1,79.4929-.0067c1.7019-.0037,1.9126.7905,1.8491,2.1141-.0615,1.2883.4317,2.735-1.8313,2.72-10.7778-.0706-21.5564-.0356-32.3344-.0382-.5,0-1,0-2.0694,0,1.6319.656,2.7325,1.1237,3.8506,1.5438,8.0757,3.0333,12.9339,8.9661,15.0681,17.1434.5552,2.1265,1.4317,2.76,3.5208,2.6751,3.9077-.1593,7.8281.0169,11.738-.1076,1.9624-.0625,2.1377.929,2.1594,2.4937.0235,1.6806-.4128,2.4172-2.2717,2.3443-3.9077-.1532-7.8249-.05-11.7366-.127-1.4628-.0287-2.0539.4722-2.05,2.0014.0283,11.5473-5.8531,19.2716-15.8653,24.2685-7.6794,3.8325-15.9133,5.567-24.383,6.3985a6.8654,6.8654,0,0,0-2.6331.6778c1.8232.4717,3.658.9038,5.4683,1.4218a29.8105,29.8105,0,0,1,19.5507,16.3811c2.5264,5.3556,4.0379,11.1833,6.146,16.7456a53.8476,53.8476,0,0,0,4.107,9.2709c3.4289,5.5608,9.0324,7.0326,15.4365,4.5456,2.126-.8256,2.4758-.74,2.99,1.3481a2.2622,2.2622,0,0,1-.7756,1.9856,24.1147,24.1147,0,0,1-6.1055,2.7438C469.8154,271.6386,457.5075,271.5337,446.1338,264.5234ZM460.7451,67.5846c.156,1.6268-.49,1.9429-1.9319,1.9282-6.6658-.0681-13.3323-.0576-19.9985-.07-2.782-.0054-2.7852,0-2.7847,2.8754.0007,4.359-.0327,8.7185.0354,13.0764.0195,1.2713-.2383,1.8714-1.6746,1.811-2.4892-.1047-4.986-.0291-7.8137-.0291v-3.47c.0005-7.1794.0357-14.3592-.0268-21.5381-.0135-1.5143.3369-2.1855,2.0053-2.1751q15.0957.0939,30.1919.0169c1.521-.007,2.0613.4919,1.9781,2.0028A37.177,37.177,0,0,0,460.7451,67.5846Zm9.3127-20.4679c-.1328-1.6852.5933-2.0594,2.1087-2.0493,7.6323.0511,15.2651.0253,22.8979.0265,3.656.0006,7.313.0476,10.9675-.0213,1.4205-.0268,1.97.4778,1.899,1.8979a49.9366,49.9366,0,0,0-.0537,5.766c.1015,1.5341-.5364,1.8528-1.89,1.8419-5.7083-.046-11.417-.0194-17.1253-.0194v-.0083c-5.58,0-11.1609-.0455-16.74.029-1.5806.0211-2.18-.4628-2.0649-2.08A36.0521,36.0521,0,0,0,470.0578,47.1167Zm-41.68-2.0552c5.7023.0595,11.4057.0245,17.1088.0245q8.17.0054,16.34.0054c2.4949.0027,2.5376.0468,2.5611,2.6015.0151,1.6658-.0108,3.3321.0078,4.9978.0134,1.2072-.354,1.8713-1.76,1.8676q-17.205-.0449-34.41.0237c-1.2413.0043-1.712-.416-1.6646-1.6725.0747-1.9835.104-3.9774-.0166-5.9566C426.4568,45.51,426.9467,45.0465,428.3777,45.0615Zm-45.7649,2.0171c-.1717-1.7458.5564-2.0262,2.0661-2.0188,10.25.05,20.4993.032,30.7488.0337,5.0923.0009,5.0923-.0012,5.05,5.0009-.0376,4.48-.0376,4.4779-4.5959,4.4754q-7.303-.0039-14.606-.0006v-.0275c-5.573,0-11.147-.0481-16.719.032-1.4949.0215-2.094-.3374-1.9648-1.9292A31.2913,31.2913,0,0,0,382.6128,47.0786Zm1.46,12.8323q15.4853.0857,30.9709.0763c1.3887-.0009,1.9563.42,1.8552,1.9064-.1342,1.9785-.0656,3.974-.02,5.9606.0269,1.1818-.3073,1.7143-1.6445,1.6974-6.9875-.0886-13.9768-.0434-20.9639-.1395-1.6-.022-2.1919.5147-2.0942,2.0928a32.8662,32.8662,0,0,1-.02,4.4215c-.1128,1.5377.5249,1.9981,1.9995,1.9883,7.8872-.052,15.7745-.023,23.6619-.0418,2.7481-.0066,2.7314-.0327,2.6746,2.7754-.0349,1.7306.0676,3.4683-.0623,5.19-.0359.4758-.6816,1.2975-1.051,1.2994-12.0528.0614-24.106.0423-36.1592.0277-.1147,0-.229-.1012-.647-.2977q0-12.7561-.0107-25.539C382.559,60.2374,382.9973,59.905,384.0725,59.9109ZM338.6418,52.863c.12-2.1094.1631-4.2314.0769-6.3415-.0493-1.2037.366-1.6224,1.51-1.6161,2.95.0162,5.9-.0271,8.8506-.0247,7.8247.0063,15.65.0575,23.4741.0088,1.52-.0095,1.8979.4752,1.9741,1.9845.373,7.3956-2.394,13.3559-8.1055,18.22,4.396,7.2274,8.7664,14.4132,13.4,22.0313-3.8891,0-7.3166.0684-10.7353-.0736-.5132-.0213-1.0781-.9695-1.4622-1.5866q-4.51-7.2489-8.9389-14.5479a2.6258,2.6258,0,0,0-3.0667-1.5441,25.5852,25.5852,0,0,1-5.3755.085c-1.5405-.0744-2.0054.5687-1.9858,2.0354.06,4.553-.0344,9.1083.0512,13.66.0306,1.6151-.5376,2.1314-2.1127,2.0622-2.4165-.1063-4.8414-.0279-7.4947-.0279,0-8.8584.0244-17.3176-.0239-25.7764-.0078-1.4.6709-1.5508,1.7944-1.54,4.2967.0393,8.594.0285,12.8911.02a11.25,11.25,0,0,0,8.396-3.6136,6.2461,6.2461,0,0,0,.6355-.7084,5.9922,5.9922,0,0,0,.3975-.889c-.6531-.0522-1.1858-.1306-1.7187-.1318-6.9263-.0147-13.8528-.0372-20.7789-.0076C339.0583,54.5454,338.5676,54.1614,338.6418,52.863ZM303.5942,295.4061c-.4031-.2041-.8-.4192-1.2-.6293.38-.2289.7583-.6523,1.1416-.6572q7.4078-.0956,14.8164-.0609c.4241.0019.8462.371,1.2691.57a12.3224,12.3224,0,0,1-1.209.8385,6.8251,6.8251,0,0,1-1.3711.3049c2.4558,5.6385,4.8359,11.1039,7.2163,16.5694l.4834.0227c.9814-2.7293,1.9817-5.4524,2.9182-8.1971a1.8451,1.8451,0,0,0-.2541-1.0979c-.8716-2.0642-1.691-4.1567-2.6993-6.1534-.3147-.6233-1.1594-.98-1.7634-1.456-.3118-.2461-.6277-.4874-.9416-.7308.3295-.2284.643-.6193.9914-.6537.9529-.0938,1.9207-.0377,2.8823-.04,3.3355-.0092,6.6717-.0546,10.0061.001a9.404,9.404,0,0,1,2.2146.5853c-.5842.4215-1.1682.843-2.1667,1.5633,2.1684,5.0921,4.4744,10.5077,6.9014,16.2079a6.3535,6.3535,0,0,0,.5979-.9382c1.6164-4.8611,3.215-9.7281,4.833-14.5887.4272-1.2834-.33-1.339-1.284-1.4347a22.0523,22.0523,0,0,1-2.7492-.6141,13.5667,13.5667,0,0,1,2.8188-.7539c2.11-.1094,4.2317-.0646,6.3445.02.4258.017.8332.489,1.249.7512-.4131.2076-.8672.649-1.2327.5849-2.3315-.4086-3.1179.9936-3.7507,2.8511q-4.6131,13.5363-9.3447,27.0322c-.1773.5072-.8091,1.301-1.072,1.2434a2.5565,2.5565,0,0,1-1.6492-1.12c-1.9077-4.1262-3.6777-8.3157-5.5447-12.4611-.9013-2.0013-1.9194-3.95-3.093-6.3487-1.5222,3.5551-2.8867,6.6344-4.1616,9.75-1.2129,2.965-2.2952,5.9836-3.5259,8.9408-.2234.5366-.8674,1.2117-1.35,1.2385a2.0195,2.0195,0,0,1-1.47-1.0829c-3.84-8.5241-7.6152-17.0773-11.4067-25.6234a23.91,23.91,0,0,0-1.6167-3.4627C305.0908,295.8705,304.2182,295.7221,303.5942,295.4061Zm28.4146,69.9817a4.3935,4.3935,0,0,1-3.6536,3.9222,4.3357,4.3357,0,0,1-4.52-2.5275,23.8127,23.8127,0,0,0-1.55-2.4366c-.6932.8452-1.7781,1.5964-2.0076,2.5529a62.9118,62.9118,0,0,0-1.6572,9.3961c-.2754,3.2976-.0616,6.6361-.0616,10.11l2.8738.3035.1209.5158c-.3687.1785-.7347.5061-1.1062.5127q-6.1534.1089-12.3079.1054c-.4128-.0008-.8249-.3657-1.2373-.5615.3943-.2848.7964-.5592,1.1807-.8569.478-.37,1.3471-.7559,1.3505-1.1411.064-7.3694.0274-14.74-.0009-22.11-.0005-.1755-.14-.3505-.0508-.1416l-2.4859-1.3894a14.3585,14.3585,0,0,1,2.5718-.5888c2.4317-.1141,4.8726-.0362,7.3028-.1664,1.5346-.0823,2.0693.497,1.9309,1.9886-.1,1.078-.02,2.1728-.02,3.4793a7.9722,7.9722,0,0,0,.4326-.8509,7.6074,7.6074,0,0,1,10.3655-4.7327C331.4428,361.5331,332.2548,363.0161,332.0088,365.3878Zm28.0961,10.8479h-16.87c-.5737,5.3836,2.4817,11.4719,9.5332,9.5224a37.4677,37.4677,0,0,0,4.9851-2.2605,12.8271,12.8271,0,0,1,1.6309-.4891c-.1246.5588-.0723,1.271-.4021,1.6521a11.2689,11.2689,0,0,1-9.5188,3.6928,35.8057,35.8057,0,0,1-9.1748-1.7413,8.2986,8.2986,0,0,1-5.637-6.7868,31.7541,31.7541,0,0,1-.388-8.3172c.6827-6.73,5.2176-10.7836,12.002-11.1739,7.8284-.45,13.07,4.1711,13.8252,12.2373C360.1963,373.7017,360.1049,374.85,360.1049,376.2357Zm18.9429-14.108c-1.4971-.6336-3.7383.4347-4.4482,2.4493-1.0672,3.0284-1.72,6.2027-2.344,8.5446.448,3.0295.5847,5.155,1.0969,7.1857,1.41,5.59,6.19,6.713,10.6909,5.0328a21.6014,21.6014,0,0,0,3.0564-1.9318,6.8809,6.8809,0,0,1,1.448-.4712c-.09.5628.0122,1.2852-.3013,1.6617-1.6586,1.9922-3.8205,3.493-6.3952,3.5a48.06,48.06,0,0,1-10.4465-.9227,8.8153,8.8153,0,0,1-7.1617-8.0576,31.2407,31.2407,0,0,1,.0887-9.8634c1.1611-5.332,6.1281-8.7289,12.2846-8.8578a23.4233,23.4233,0,0,1,7.5261,1.0624,7.5037,7.5037,0,0,1,5.2488,7.2836,4.646,4.646,0,1,1-9.2883-.1786c.0239-.6994.241-1.3907.2878-2.0913C380.499,364.8564,381.101,362.9965,379.0478,362.1277Zm11.1431-35.4844q-4.1,0-8.2,0c-1.7964,0-3.5947.0408-5.388-.0375-.3737-.0163-.7282-.4762-1.0915-.7317.3306-.2347.6855-.6986.9878-.6665,1.78.1892,1.9954-.8393,1.9665-2.2325-.1159-5.64-.1374-11.2832-.3156-16.9214-.0865-2.7307-2.066-4.2167-5.1319-4.1374a4.9141,4.9141,0,0,0-4.407,4.4753c-.0129,6.2165-.0046,12.4329-.0046,18.7157l3.0825.5428-.0747.6032a5.2011,5.2011,0,0,1-1.1618.2862c-4.0413.0528-8.0833.1024-12.1243.0779-.5154-.0031-1.0281-.4344-1.542-.6673.48-.2665.9526-.74,1.4414-.7577,1.1189-.0394,1.41-.5461,1.408-1.5685q-.0327-16.361-.0057-32.7221c.0018-1.1-.321-1.661-1.5295-1.6764-.43-.0054-.8533-.5152-1.2795-.7948.4707-.304.9345-.8577,1.4135-.8712,2.9493-.0832,5.9026-.0045,8.8528-.0646,1.2837-.0262,1.6453.5085,1.6309,1.7219-.0508,4.2949-.02,8.5908-.02,13.1133,2.4414-1.8062,4.8316-3.1863,7.801-3.2795,7.0418-.2207,10.7,3.201,10.9163,10.3866.0791,2.6283.0229,5.2608.0254,7.8913.0022,2.5576,0,5.1151,0,7.6369l2.9092.7946Zm3.7864-18.055c1.1662-5.0417,4.5688-7.9656,9.4138-9.09,4.9653-1.1526,9.7092-.4132,13.2148,3.6232,2.8238,3.2514,3.346,7.381,3.3294,11.8932H402.3181a51.02,51.02,0,0,0,1.4377,5.5765,6.1236,6.1236,0,0,0,6.5962,4.226,12.5583,12.5583,0,0,0,7.29-2.6026,4.2533,4.2533,0,0,1,1.45-.4336c-.1158.5544-.0525,1.263-.376,1.638a10.4172,10.4172,0,0,1-7.7857,3.6652,41.7627,41.7627,0,0,1-9.6474-1.2125c-3.7759-.8415-5.9656-3.6143-7.0618-7.2011A19.2391,19.2391,0,0,1,393.9773,308.5883Zm31.8383,79.1681q-6.1527.1116-12.3068.1028a4.437,4.437,0,0,1-1.4468-.564c.4695-.2936.917-.7832,1.4128-.8388.9473-.1062,1.594-.2564,1.5706-1.4262-.1219-6.0192-.1438-12.0412-.3316-18.0582-.0744-2.3882-2.2807-3.9552-5.0239-3.871-2.11.0646-4.4824,2.194-4.4941,4.19-.0362,6.1556-.0069,12.3115.0058,18.4673a3.2507,3.2507,0,0,0,.1924.6876,15.36,15.36,0,0,1,1.8257.1268,2.8589,2.8589,0,0,1,.8547.5087c-.301.2283-.5984.65-.9035.6559q-6.2484.1155-12.4983.0989c-.3762-.0014-.75-.4407-1.1255-.6767a6.7865,6.7865,0,0,1,1.1382-.69,7.3814,7.3814,0,0,1,1.3923-.2311V350.7507a5.0182,5.0182,0,0,1-1.0686-.2715c-.5356-.2685-1.0291-.622-1.54-.94a5.0928,5.0928,0,0,1,1.6989-.7534c2.8191-.0848,5.6431.0025,8.4624-.0766,1.3814-.0388,1.7383.488,1.6944,1.818-.1226,3.7156-.11,7.4359-.1375,11.1544-.0041.5859.0611,1.1723.106,1.97a12.8313,12.8313,0,0,1,11.3388-3.1077c3.9949.73,6.3521,3.1781,6.8655,7.0161a105.5,105.5,0,0,1,.5154,11.112c.0691,2.55.0132,5.1029.0132,7.7612l2.9.2391q.0612.2772.1226.5545A3.6859,3.6859,0,0,1,425.8156,387.7564Zm20.7268-1.75a17.1378,17.1378,0,0,1-10.0832,2.1982c-3.0222-.1727-5.1987-1.4327-5.8335-3.5489a7.8,7.8,0,0,1,2.3154-8.2155c2.2766-1.8208,5.0435-2.0893,7.7329-2.6218,1.3831-.2739,2.7757-.5137,4.1736-.6937,1.022-.1316,1.4539-.605,1.3855-1.649-.1379-2.1088-.1079-4.2337-.3462-6.3293a3.6164,3.6164,0,0,0-5.0749-2.8226c-.9124.3917-1.4719.94-1.0667,2.091a11.8643,11.8643,0,0,1,.5318,2.6271c.2649,2.3948-.5974,4.0107-2.5264,4.88a4.1627,4.1627,0,0,1-5.0916-.9834,4.9,4.9,0,0,1-.5835-5.5651c1.67-3.026,4.4852-4.3551,7.7508-4.6465a50.3106,50.3106,0,0,1,7.2751-.0207c4.6907.2643,7.2469,2.5321,7.6944,7.2293.3759,3.9454.2739,7.9367.375,11.9079.0229.8979-.0005,1.7969.0171,2.695.0561,2.87.1247,2.9459,3.4572,3.84C455.6862,388.8966,449.6184,388.6785,446.5424,386.0068Zm40.2483-20.5992a4.432,4.432,0,0,1-4.0161,4.01,4.2251,4.2251,0,0,1-4.11-2.8473,3.1111,3.1111,0,0,0-.26-.7207c-.3979-.54-.8444-1.0451-1.2719-1.564-.5386.4813-1.3638.8657-1.5652,1.461a27.3868,27.3868,0,0,0-1.8477,6.811c-.2851,4.5793-.0842,9.1889-.0842,13.902l2.7368.196c-.4775,1.0518-9.6526,1.7657-13.7807,1.1885-.4124-.0577-.7647-.5464-1.441-1.06,3.2073-.6238,3.2068-.6238,3.2061-3.4656-.001-6.2247-.0151-12.4493.0083-18.6739.0049-1.3548-.0405-2.5071-1.93-2.2156-.26.04-.6023-.4595-.9065-.7093.3076-.2442.6128-.6968.9231-.7,3.2715-.0388,6.5454-.0515,9.814.0647.4087.0145,1.0622.7767,1.1289,1.2581a33.5213,33.5213,0,0,1,.0539,4.178c2.2332-6.5849,7.0276-6.89,10.6892-5.81C486.3,361.3471,487.0683,362.8992,486.7907,365.4076Zm23.3963-4.1828a22.2659,22.2659,0,0,0,2.332,1.9872c5.9661,4.8178,4.7468,12.8449-2.3547,15.8356A20.1384,20.1384,0,0,1,499.59,380.13c-1.0779-.1338-2.2369-.4947-2.3125,1.2908-.0647,1.5315.3969,2.5226,2.081,2.5485,3.9082.06,7.8225-.0164,11.7234.1814,5.9927.3038,8.4138,5.0313,5.4968,10.3484a10.6525,10.6525,0,0,1-9.781,6.014,101.124,101.124,0,0,1-12.5993-.9292c-3.4651-.4411-5.6414-2.9777-4.9285-5.6544.3923-1.4736,1.6211-2.7245,2.7153-4.4605-1.6533-4.3327-1.4106-5.2148,3.1165-10.3314-6.4614-2.5332-7.1316-9.0706-4.27-13.6436,2.0334-3.25,5.6428-4.3443,9.2668-4.781a63.0858,63.0858,0,0,1,7.3867-.0544c-.1355-1.2263-.3554-2.4543-.3894-3.6873a5.2481,5.2481,0,0,1,3.116-5.1184,6.5763,6.5763,0,0,1,6.4587.1322c2.0706,1.212,2.5147,4.4591,1.0247,6.4558a3.5835,3.5835,0,0,1-5.3943.6636,3.3818,3.3818,0,0,1-1.3345-3.5676c.1333-.6626.2913-1.32.4595-2.0766C508.5051,354.4879,507.896,358.78,510.187,361.2248Zm29.8315,24.4239a39.315,39.315,0,0,0,5.1448-2.35,6.3762,6.3762,0,0,1,1.4712-.2748,4.0028,4.0028,0,0,1-.3757,1.5049,9.3172,9.3172,0,0,1-6.9771,3.6005,40.5307,40.5307,0,0,1-9.4878-.7029,9.8364,9.8364,0,0,1-8.2954-8.5073c-.8042-4.5919-1.0869-9.2386,1.8193-13.3239,3.2911-4.6265,9.3623-6.3813,15.531-4.6514,4.5706,1.2818,7.8384,5.78,8.3682,11.5493.1047,1.14.14,2.2856.2317,3.8369h-17.113C530.0454,383.424,533.7961,387.37,540.0185,385.6487Zm17.2678-60.466a14.9741,14.9741,0,0,1-9.8435,1.8976c-5.3193-.7931-7.99-3.9077-8.0219-9.284-.0279-4.681-.0625-9.3624-.0266-14.0431.0114-1.5-.0313-2.7445-2.0711-2.5536-.2766.0259-.6013-.4654-.9038-.7173.3242-.2195.6436-.6216.9731-.63,3.2671-.0879,6.5357-.1183,9.804-.1484,1.5-.0138,1.3069,1.0964,1.3,2.0473-.0412,5.5786-.1044,11.1571-.1237,16.7358a9.96,9.96,0,0,0,.3076,2.4565c.716,2.8225,2.2585,3.95,4.7615,3.6757,1.9936-.2189,4.6748-2.5447,4.5756-4.8851-.2168-5.1223-.1228-10.261-.0415-15.3912.0308-1.95-.0576-3.5572-2.9665-3.0857l.0857-.5c.313-.3075.6174-.8725.94-.8827,3.3948-.1083,6.7949-.1949,10.1865-.08.3865.0131,1.0445,1.2925,1.045,1.9853.0066,6.8606-.0943,13.7214-.1763,20.582-.0193,1.62-.2822,3.387,2.302,3.0266a.5842.5842,0,0,1,.4509.2821c.0789.1485.0176.3714.0176.974-3.6094,0-7.1277.0563-10.6406-.0567C558.65,326.5686,558.1032,325.8,557.2863,325.1827Zm23.3492,62.0944a14.0068,14.0068,0,0,1-9.7742.5151c-3.3-.92-5.1738-3.7658-5.2437-8.07-.08-4.9353-.0288-9.8728-.0341-14.8093-.001-.6993,0-1.3985,0-2.4594-1.1213,0-2.1189.0671-3.0993-.0326-.4-.0406-.763-.443-1.1429-.6808a4.3507,4.3507,0,0,1,1.1292-.6889c2.0754-.5011,4.3345-.5851,6.21-1.482,2.4-1.1474,3.55-3.5714,4.3489-6.0919.158-.4988.7048-.8743,1.0725-1.3066a5.3683,5.3683,0,0,1,.5366,1.5,34.7355,34.7355,0,0,1,.0049,4.9955c-.2051,2.0243.6416,2.6452,2.5142,2.4538a17.7112,17.7112,0,0,1,3.0725-.0236c.3313.0241.6352.4213.9519.6478-.311.2285-.614.64-.9341.6541-1.4067.06-2.82.0432-4.2275-.0205-1.0686-.0484-1.501.3776-1.4915,1.4488.051,5.705-.0881,11.4172.1585,17.1131.146,3.3673,2.1611,5.56,5.7285,4.422a8.1879,8.1879,0,0,1,1.3061-.2q.2579.2579.5149.5158C581.7087,386.2226,581.279,386.9867,580.6355,387.2771Zm18.5776,1.2112c-9.5149-.0869-15.49-5.423-15.4778-13.8217.0125-8.5824,5.9951-14.373,14.8313-14.355,8.6714.0176,14.5691,5.76,14.5557,14.172A13.6553,13.6553,0,0,1,599.2131,388.4883Zm35.0107-1.4675a9.464,9.464,0,0,1-3.4419,1.1026,28.85,28.85,0,0,1-7.0227-.43c-3.1535-.7095-5.0759-4.2237-5.07-8.419.0049-3.7215.0249-7.443.0367-11.1645.0029-.9625.0009-1.925,0-2.8875-.0027-2.7136-.003-2.7136-2.68-2.7675-.064-.0013-.1385.0211-.1909-.0036-.4493-.2116-.8943-.4315-1.3406-.6489.4792-.26.9682-.76,1.4363-.7415,2.9726.12,5.6921-.5337,7.6032-2.9012a35.2213,35.2213,0,0,0,2.6238-4.6212,10.8206,10.8206,0,0,1,1.0715-1.3327,6.8016,6.8016,0,0,1,.5308,1.6908,42.244,42.244,0,0,1,.0078,5.0019c-.1282,1.7286.6165,2.321,2.231,2.2132a24.8723,24.8723,0,0,1,3.2673-.0455c.3809.0249.7373.4287,1.1045.6595-.3621.2319-.7166.6487-1.0876.6641-1.7244.0713-3.4534.0315-5.34.0315a10.01,10.01,0,0,0-.2639,1.525c.0071,5.6463-.16,11.3027.1289,16.9354.1838,3.5743,2.1553,5.5631,5.6636,4.4908a.3964.3964,0,0,1,.1863-.04c.4831.1256.9638.2609,1.4453.3933C634.83,386.1714,634.6347,386.8348,634.2238,387.0208Zm-.5351-90.9289c-1.71.0069-2.6848-.9794-2.9324-2.9087a9.6982,9.6982,0,0,0-.5273-2.8089,2.7456,2.7456,0,0,0-1.6992-1.4452c-.4273-.0721-1.3724.781-1.4844,1.34-.6111,3.0479-1.0354,6.1331-1.5757,9.5314,2.5671,0,4.4775-.06,6.38.0374a4.9246,4.9246,0,0,1,1.6414.7768,5.5329,5.5329,0,0,1-1.6155.6037c-1.9109.0748-3.8264.029-5.8938.029v23.79l2.83.6239q-.0308.3279-.0613.6557H614.2778l-.2783-.43,2.6645-1.345c.03-.5864.1182-1.5216.1206-2.457.0166-6.2232-.0127-12.4468.04-18.67.0119-1.43-.1685-2.3847-1.9524-2.2193-.4461.0413-.9463-.501-1.4216-.7751.4743-.1931.9665-.5839,1.42-.543,1.4766.1329,1.8785-.6007,1.9959-1.905a16.5811,16.5811,0,0,1,.71-3.7687c1.6231-4.8338,5.0191-7.2212,10.1827-7.1128a21.2837,21.2837,0,0,1,5.4694.6659,5.1136,5.1136,0,0,1,3.7261,5.2305A3.1926,3.1926,0,0,1,633.6887,296.0919Zm-7.2771-52.3453c-5.6089-12.405-7.1211-25.5581-6.9705-39.0181.1448-12.9385,2.927-25.1714,9.6968-36.2906,8.39-13.78,20.3955-22.009,36.7371-23.4251,9-.78,17.7866-.1194,26.291,3.1879a40.25,40.25,0,0,1,18.3774,14.033,85.281,85.281,0,0,1,7.8635,13.5685c2.9983,6.349,4.3738,13.2353,5.139,20.2021a110.7737,110.7737,0,0,1,.1255,23.9539c-1.1556,10.7783-4.0979,20.993-10.1094,30.127-9.1646,13.9252-22.1375,21.2659-38.7906,22.0955-1.0239.0511-2.048.1019-2.6025.1294-11.1692-.0623-21.1831-2.4266-29.9858-8.8164A48.5728,48.5728,0,0,1,626.4116,243.7466Zm52.7607,48.21a5.42,5.42,0,0,1-5.7187,5.5992,5.2174,5.2174,0,0,1-4.8223-5.23,5.29,5.29,0,0,1,5.2349-5.437C677.0163,286.9288,679.1609,288.9771,679.1723,291.9568ZM650.956,325.03l2.8906.6649q-.0373.2894-.0749.5787a4.2283,4.2283,0,0,1-1,.2623c-4.04.0507-8.0816.1033-12.1218.0767-.49-.0032-.9761-.4667-1.4642-.7168.4261-.2757.8431-.7676,1.28-.7853,1.1775-.0479,1.3652-.7513,1.3652-1.6612q.0008-10.296-.0046-20.592c.0012-1.0922-.3758-1.6725-1.58-1.6457-.3508.0078-.7122-.4509-1.0686-.6958.3884-.233.7705-.6559,1.1663-.6689,3.0742-.1009,6.1513-.11,9.2268-.1758,1.1579-.0248,1.6362.4479,1.4992,1.63-.14,1.2052-.1733,2.4227-.2868,4.1422a6.64,6.64,0,0,0,.5251-.928c1.4273-5.2882,6.0962-6.0746,10.0506-5.2079a3.812,3.812,0,0,1,2.9834,3.9587c.0144,2.5319-1.1578,4.1955-3.3519,4.7576a4.1093,4.1093,0,0,1-4.5783-2.03c-.1314-.2184-.1944-.48-.336-.69-.5053-.7509-1.0312-1.4883-1.5493-2.2308-.6584.81-1.6655,1.5278-1.9094,2.4478a44.968,44.968,0,0,0-1.5957,8.2445C650.7563,317.5112,650.956,321.29,650.956,325.03Zm2.7144,60.9936a16.621,16.621,0,0,1-9.906,2.17c-3.3474-.2169-5.56-1.626-6.0857-4.0035-.7908-3.5749.45-7.0863,3.4941-8.36a62.3581,62.3581,0,0,1,8.2715-2.289c.3691-.0971.7627-.0965,1.1421-.1587,2.8472-.4676,2.8642-.48,2.7258-3.4312-.072-1.5368-.1137-3.0794-.2878-4.6059a3.2577,3.2577,0,0,0-3.5606-3.2414c-2.1069-.0174-2.6994.7458-2.3264,2.8428a18.4681,18.4681,0,0,1,.325,3.245,4.4867,4.4867,0,0,1-4.6211,4.19,4.415,4.415,0,0,1-4.116-4.0649c-.1228-3.2712,1.7341-5.3733,4.5081-6.4966a20.2027,20.2027,0,0,1,14.8193-.1617c2.62.947,3.5623,3.3127,3.8193,5.786.3438,3.3035.3384,6.6446.448,9.9707.0569,1.73-.0036,3.4634.063,5.1925.1189,3.0826.2573,3.2121,3.3667,3.6356C663.4248,388.8748,656.9257,388.7111,653.67,386.0236Zm13.2319-60.0246c.5823-.3182,1.16-.6443,1.75-.9494a4.568,4.568,0,0,1,.7114-.2058c.06-.7052.1778-1.45.1788-2.1954.009-6.4036-.0088-12.8075-.0037-19.2111.001-1.1231.1194-2.25-1.5474-2.2489-.2111,0-.4223-.4923-.6335-.7565.282-.202.5637-.5786.8462-.5793,3.2-.0085,6.4028-.0174,9.5942.1635.3213.0182.815,1.2774.8184,1.9627.0332,6.7874-.0205,13.5752-.0486,20.3629-.0037.8852,0,1.77,0,2.7071l3.01.6124-.0571.6251a7.5978,7.5978,0,0,1-1.3323.2532c-3.8416.0518-7.6836.1041-11.5251.0789A5.817,5.817,0,0,1,666.9023,325.999Zm16.8611,61.5017a6.17,6.17,0,0,1-1.1887.2526c-3.8465.0613-7.6936.1315-11.54.1056a5.94,5.94,0,0,1-1.8863-.7132c.5723-.2471,1.1419-.5018,1.719-.7369a6.2082,6.2082,0,0,1,.784-.1772c.0622-.8811.1833-1.81.1848-2.7388q.0245-15.2015.0139-30.4029c0-1.3279.3042-2.874-1.9187-2.67-.206.0189-.4707-.6011-.708-.9245.3865-.2531.7666-.7127,1.1609-.7252,2.1782-.07,4.36-.0274,6.54-.0284,4.1121-.0019,4.033-.0037,4.01,4.0946-.0595,10.647-.0446,21.2944-.051,31.9416,0,.5024.0823,1.0048.1314,1.5633l2.8388.5216Q683.8087,387.1817,683.7634,387.5007Zm.8821-76.172c.2749-5.18,2.6318-9.1226,7.5359-11.0866,5.0974-2.0414,10.1032-1.7593,14.4992,1.8407,2.854,2.3374,3.68,5.7661,4.1851,9.2332a28.3437,28.3437,0,0,1,.0254,3.76H693.76c.1477,2.8452.5,5.3762,2.2361,7.5366,1.979,2.4637,4.6645,2.6372,7.3408,1.895a61.9392,61.9392,0,0,0,6.9668-2.8187q.1992.2129.3979.4257a13.5258,13.5258,0,0,1-1.9267,2.3233c-4.0989,3.1683-8.7957,3.1183-13.5855,2.2959C686.5534,325.2505,684.22,319.3488,684.6455,311.3287Zm29.1284,68.0992a47.9136,47.9136,0,0,0,1.7305,4.6781c.7014,1.8074,2.08,2.2533,3.88,1.9544a4.86,4.86,0,0,1,1.4549.2093c-.3655.364-.6675.91-1.1065,1.0632a14.0818,14.0818,0,0,1-9.7888-.2258,8.2446,8.2446,0,0,1-4.6826-5.0811c-.6582-1.667-1.1482-3.4144-1.9509-5.006a28.7723,28.7723,0,0,0-2.4944-3.569q-.5171-.7241-1.0359-1.4469a10.01,10.01,0,0,1,1.801-.7254c.8111-.1619,1.6634-.1043,2.4888-.2114a6.5139,6.5139,0,0,0,5.4416-5.1871c.1663-1.2551-.1306-1.9519-1.5861-1.9154q-3.5571.0891-7.1172-.0543c-.5015-.0208-.9825-.5367-1.4727-.8244.4795-.2991.9517-.8419,1.44-.8569,2.7361-.0839,5.4758-.04,8.3525-.04a5.1908,5.1908,0,0,0-4.7109-5.18c-1.3267-.193-2.6853-.1592-4.0159-.3328-.4008-.0523-.7556-.4568-1.1316-.7.3894-.2361.7771-.6754,1.168-.6781q10.3818-.0744,20.7639-.0218c.3665.0019.7305.4708,1.0955.7224-.39.2286-.7754.6447-1.1714.6552-2.35.0623-4.7019.0308-6.6624.0308a54.2054,54.2054,0,0,0,3.0425,4.7494c.42.5384,1.4439.6269,2.2083.87.864.2744,1.7466.4914,2.6211.7333-.8777.2471-1.7439.5563-2.6365.7218-.7481.1386-1.7559-.385-1.8848.9692-.4585,4.82-3.9033,6.5492-7.9516,7.6313-.595.159-1.2129.2326-2.0279.3844C710.84,374.2988,712.92,376.2891,713.7739,379.4279Zm28.4712,8.3139q-7.5952.1008-15.1914.0983c-.4041-.0006-.8076-.3964-1.2114-.6086.4091-.2747.7949-.73,1.2324-.7867a25.137,25.137,0,0,1,3.0649-.0373V359.425a31.9221,31.9221,0,0,1-3.1037.9249,4.0713,4.0713,0,0,1-1.48-.2922c.2424-.3991.3894-.9984.7419-1.1663,3.4678-1.6519,6.9234-3.3469,10.48-4.7893,2.1089-.8554,2.7419-.2452,2.728,2.0814q-.0816,13.7527-.18,27.5053c-.0056.8786-.0007,1.7572-.0007,2.76l3.8955.2354.1172.5619C742.9734,387.4188,742.6115,387.7369,742.2451,387.7418Zm31.4585-8.9316c-3.0117,8.1394-10.2442,11.431-19.408,9.0389-4.4944-1.1733-6.863-4.5282-6.3025-8.9261a3.91,3.91,0,0,1,3.554-3.4771c1.739-.3223,3.4758-.0536,4.4087,1.5545a3.976,3.976,0,0,1-.4969,4.8277c-.083.0971-.2089.169-.2622.2783-.5041,1.0408-.997,2.0871-1.4931,3.1318,1.1843.5417,2.3259,1.401,3.56,1.5666,3.9824.5341,6.9351-1.6286,7.5772-5.5691.4634-2.8464.57-5.7508.8366-8.6294l-.7163-.2228a15.9159,15.9159,0,0,1-10.1311,1.0745c-3.8056-.69-6.8623-2.4126-7.6587-6.5093-.8317-4.2771-.1157-8.1955,3.6509-11.0073,4.5911-3.4274,14.4451-3.2023,18.8916.4189,2.8474,2.3187,4.1275,5.512,4.7283,8.9793C775.227,369.8675,775.3181,374.4463,773.7036,378.81ZM771.92,326.473c-2.21-.4856-3.9082.2159-5.7791.5986a11.6323,11.6323,0,0,1-14.1384-9.6318c-.8023-4.8579-.7649-9.6271,2.0933-13.9045a10.8367,10.8367,0,0,1,15.49-3.1728c.2007.1309.4155.24.8818.507,0-3.5272-.0217-6.7322.012-9.9366.0115-1.0906-.333-1.6627-1.5178-1.7306-.419-.024-.81-.5348-1.2134-.8234.4177-.2879.83-.8152,1.2539-.8254,3.0781-.0743,6.1587-.0194,9.2383-.0572,1.6543-.02,1.6079,1.052,1.5959,2.2129q-.1395,13.4687-.2461,26.9377c-.0183,2.2456.07,4.494-.017,6.7362-.0518,1.3385.2253,2.1082,1.7656,1.9631.3347-.0315.7068.3287,1.0613.5085-.3623.2337-.72.6609-1.0879.6705C778.17,326.6077,774.9128,327.1305,771.92,326.473Zm34.34,50.1721c-2.3154,9.7337-9.8655,13.5021-19.7012,11.3327a8.1019,8.1019,0,0,1-6.6359-8.7347c.395-2.5491,2.31-4.272,4.8352-3.8045,1.2363.2288,2.8867,1.0786,3.3071,2.0836.4624,1.1048-.2151,2.7243-.522,4.0913-.1006.4477-.5967.8062-.9109,1.2065-1.5652,1.9948-1.218,3.1577,1.2473,3.796,3.4791.9008,8.525-.3882,8.9817-5.5381.25-2.8234.5054-5.6464.7952-8.8851a18.0146,18.0146,0,0,1-11.2668,1.203c-4.6243-.9961-7.1956-3.7109-7.4676-7.8257-.3652-5.5277,1.7505-9.2939,6.2483-10.9209a20.5371,20.5371,0,0,1,12.6609-.3045c4.4536,1.213,6.7288,4.5079,7.9937,8.6128A25.7781,25.7781,0,0,1,806.26,376.6451Zm.0435-50.5557a36.2134,36.2134,0,0,1-5.9383,1.5207c-4.674-.3516-8.3747-.7238-11.7092-2.5261a5.2568,5.2568,0,0,1-2.8469-5.2695,3.1756,3.1756,0,0,1,2.5259-3.2083,3.762,3.762,0,0,1,4.0974,1.4159c1.0417,1.3445.405,2.5243-.35,3.696-1.3425,2.0842-1.2156,2.97,1.1575,3.2989a47.3608,47.3608,0,0,0,9.5065.1856c.8008-.0517,1.9263-1.3927,2.1373-2.3159a3.0406,3.0406,0,0,0-1.242-2.6383c-2.4495-1.1888-5.0752-2.017-7.6409-2.9639-2.2138-.8171-4.66-1.2539-6.6123-2.4816-4.6511-2.9255-4.8349-9.0793-.64-12.8211,4.0825-3.642,13.53-3.9319,17.855-.5479,1.8284,1.4307,2.6387,3.5339,1.717,5.6039a4.6031,4.6031,0,0,1-2.5237,2.2077,2.9425,2.9425,0,0,1-3.728-1.5815,4.3807,4.3807,0,0,1,.3792-3.3271c1.1936-2.1277,1.1945-2.6686-1.2581-3.0157a18.038,18.038,0,0,0-6.2112.0937,3.8151,3.8151,0,0,0-2.5075,2.627,4.3506,4.3506,0,0,0,2.0971,3.2022c1.8245.9674,4.0254,1.1925,5.9761,1.9624a54.5336,54.5336,0,0,1,7.4353,3.4009C812.39,315.1724,811.4018,323.9751,806.3037,326.0894ZM799.8613,85.7938c-.0225.4725-.6929,1.29-1.0928,1.3078-2.6731.1173-5.3537.0609-8.16.0609V63.6454a68.8317,68.8317,0,0,0,5.1526,4.92,10.06,10.06,0,0,1,4.2106,10.121C799.6445,81.0132,799.9743,83.4265,799.8613,85.7938Zm24.7556-4.7115c0,1.2187.08,2.4446-.0283,3.6536a13.9959,13.9959,0,0,1-.6318,2.3907c-1.033-.325-2.33-.3623-3.053-1.0256-2.97-2.7259-5.77-5.6372-8.6228-8.49-6.8787-6.8774-13.7754-13.7373-20.5916-20.6763a4.7949,4.7949,0,0,1-1.1831-2.82c-.1689-2.3612-.094-4.7436-.0315-7.1152a4.9739,4.9739,0,0,1,.4893-1.995c1.0112.0749,2.3073.0734,2.9536.6879,4.0871,3.8854,8.0478,7.905,12.0124,11.9174,3.0081,3.0439,5.96,6.1429,8.9371,9.2173l.6057-.4025c0-6.4671.06-12.935-.0428-19.4-.0258-1.6065.3934-2.2125,2.0052-2.1206a33.4546,33.4546,0,0,0,4.8069-.0314c1.8254-.16,2.4287.4534,2.415,2.3433C824.5761,58.5042,824.6169,69.7935,824.6169,81.0823Z"/>
          <path class="cls-1" d="M458.16,155.1475c1.6319.656,2.7323,1.1237,3.8505,1.5438,8.0756,3.0333,12.9339,8.9661,15.0682,17.1434.555,2.1265,1.4315,2.76,3.5208,2.6752,3.9075-.1594,7.8279.0168,11.7379-.1077,1.9625-.0625,2.1377.929,2.1595,2.4937.0234,1.6806-.413,2.4172-2.2718,2.3443-3.9077-.1532-7.8248-.05-11.7366-.127-1.4628-.0286-2.0539.4722-2.05,2.0015.0283,11.5472-5.8531,19.2715-15.8654,24.2684-7.6794,3.8325-15.9132,5.567-24.3829,6.3985a6.8649,6.8649,0,0,0-2.6331.6778c1.8234.4717,3.6581.9039,5.4682,1.4219a29.8085,29.8085,0,0,1,19.5507,16.381c2.5265,5.3556,4.0379,11.1832,6.146,16.7456a53.8676,53.8676,0,0,0,4.1071,9.2709c3.4289,5.5608,9.0325,7.0326,15.4366,4.5456,2.1259-.8256,2.4756-.74,2.99,1.3482a2.2621,2.2621,0,0,1-.7756,1.9855,24.1141,24.1141,0,0,1-6.1054,2.7438c-12.5587,2.7367-24.8666,2.6318-36.24-4.3785a29.3361,29.3361,0,0,1-12.3483-14.7884c-2.6949-7.0525-5.1906-14.1931-8.2082-21.1054a48.132,48.132,0,0,0-6.17-9.8379c-1.2194-1.5841-3.2758-2.58-5.07-3.6467-1.2895-.7662-2.3081-3.837-1.2866-4.9129a2.8969,2.8969,0,0,1,1.7482-.4419c4.7855-.3166,9.6325-.2267,14.3461-.9792,6.6931-1.0686,12.3733-4.2243,15.9177-10.2992a28.5088,28.5088,0,0,0,3.4862-16.3032c-.021-.3834-.8868-1.0093-1.38-1.0295-2.5621-.1045-5.1307-.0493-7.6971-.0493-8.9181,0-17.8364-.0275-26.7542.0294-1.4127.009-2.0314-.368-1.88-1.8357.1356-1.3134-.4918-2.9055,1.8974-2.8882,10.9061.0791,21.813.0331,32.7194.0963,2.8783.0167,2.8755.1145,2.3139-2.662a23.14,23.14,0,0,0-6.1759-12.3376c-4.4178-4.3723-9.95-5.9112-15.9242-6.1784-4.1626-.1862-8.3369-.1941-12.5044-.1454-1.721.02-2.4221-.468-2.346-2.2956.0667-1.6035.12-2.56,2.2352-2.5545q39.7462.1,79.4929-.0066c1.7019-.0036,1.9124.7905,1.8491,2.1141-.0615,1.2883.4315,2.735-1.8315,2.72-10.7778-.0707-21.5562-.0357-32.3344-.0382C459.7287,155.1474,459.2285,155.1475,458.16,155.1475Z"/>
          <path class="cls-1" d="M513.9881,87.1825c0-6.5693,0-12.9041,0-19.2389,0-1.7963.03-3.5933-.01-5.3887-.0595-2.6477-.0812-2.6451,2.6423-2.6428,3.9777.0034,7.9556.0328,11.9329-.0039,3.8966-.036,6.9788-1.6856,9.5987-5.1175-1.0342-.1036-1.7458-.2356-2.4576-.2368-6.5439-.01-13.0885-.0509-19.6311.0421-1.7918.0255-2.3775-.4579-2.1709-2.3114a33.0838,33.0838,0,0,0,0-5.954c-.0829-1.1764.3371-1.4734,1.3825-1.4712q16.3594.0341,32.719.0249c1.3043-.0014,1.683.4575,1.7471,1.8195.35,7.4348-2.35,13.4948-8.1162,18.4091l13.2787,21.7813a17.2851,17.2851,0,0,1-1.994.2781c-2.3093.03-4.6265-.098-6.9261.0546a3.3151,3.3151,0,0,1-3.3873-1.9156c-2.85-4.7843-5.7917-9.5138-8.6316-14.3039A2.8281,2.8281,0,0,0,530.73,69.36a30.1906,30.1906,0,0,1-5.1832.1009c-1.5452-.04-2.1475.5615-2.1165,2.1581.0883,4.5533-.0026,9.11.0817,13.6635.0281,1.5225-.4673,2.0124-1.9964,1.9343C519.0412,87.09,516.556,87.1825,513.9881,87.1825Z"/>
          <path class="cls-1" d="M338.7018,87.1879c0-8.8584.0241-17.3176-.024-25.7764-.0079-1.4.6709-1.5508,1.7942-1.54,4.2968.0394,8.5941.0285,12.8912.02a11.25,11.25,0,0,0,8.396-3.6136,6.2557,6.2557,0,0,0,.6355-.7084,5.98,5.98,0,0,0,.3976-.889c-.6533-.0522-1.186-.1306-1.7188-.1318-6.9264-.0147-13.8528-.0372-20.7789-.0076-1.2362.0052-1.727-.3788-1.6528-1.6771.12-2.11.163-4.2315.0768-6.3416-.0492-1.2037.3661-1.6224,1.51-1.6161,2.95.0162,5.9-.0271,8.8506-.0247,7.8248.0063,15.65.0575,23.4742.0088,1.52-.0095,1.8979.4752,1.974,1.9845.373,7.3956-2.3942,13.3559-8.1054,18.22l13.4,22.0313c-3.889,0-7.3166.0684-10.7354-.0736-.5131-.0213-1.0781-.9695-1.462-1.5866q-4.51-7.2489-8.939-14.5479a2.6258,2.6258,0,0,0-3.0666-1.5441,25.58,25.58,0,0,1-5.3757.085c-1.54-.0744-2.0052.5687-1.9858,2.0354.06,4.553-.0344,9.1083.0514,13.66.0305,1.6151-.5377,2.1315-2.1128,2.0622C343.78,87.11,341.3549,87.1879,338.7018,87.1879Z"/>
          <path class="cls-1" d="M784.3258,87.1223c-3.7265,0-7.1576.0385-10.5855-.0511-.406-.0106-.8934-.66-1.1746-1.1175-3.05-4.96-6.1019-9.9194-9.0686-14.9291-.7742-1.3073-1.5783-1.9591-3.2069-1.688a29.0705,29.0705,0,0,1-4.6043.1359c-2.6892.0123-2.7028.0009-2.711,2.7782-.0126,4.2323-.0911,8.4672.0349,12.6958.0567,1.9071-.5858,2.4333-2.429,2.2936-2.2823-.1729-4.5875-.0414-6.9753-.0414-.0582-.6324-.1318-1.0615-.1321-1.4907-.0068-7.9517.0423-15.9038-.0427-23.8545-.0178-1.6756.5532-2.01,2.0993-1.9768,4.4227.0962,8.85.0818,13.2732-.0051a10.4288,10.4288,0,0,0,7.3492-3.27,15.6992,15.6992,0,0,0,1.3387-1.8491,8.8841,8.8841,0,0,0-1.3188-.2383c-6.8614.0015-13.7234-.0347-20.5834.0659-1.7274.0253-2.2547-.5521-2.1535-2.2128.1207-1.98.0509-3.9745.0144-5.9618-.02-1.1037.3163-1.569,1.5507-1.5632,10.8374.0515,21.6749.0388,32.5125.0314.9137-.0007,1.6366.0545,1.697,1.2624.322,6.4415-1.407,12.1593-5.8707,16.9314-2.1624,2.3117-2.1476,2.29-.4311,5.0546q5.3172,8.565,10.5833,17.1617A18.4048,18.4048,0,0,1,784.3258,87.1223Z"/>
          <path class="cls-1" d="M599.4812,70.9369l13.25,15.8247a8.31,8.31,0,0,1-1.5756.4078c-2.7586.0245-5.5214.09-8.2739-.0433a3.5357,3.5357,0,0,1-2.2458-1.0925c-3.84-4.3783-7.3757-9.0456-11.4441-13.1935-2.6437-2.6953-2.57-5.5958-2.3209-9.0735,1.6952,0,3.34.0533,4.9793-.0146a26.6015,26.6015,0,0,0,5.121-.4532,4.626,4.626,0,0,0,3.6527-3.4639c-1.6926,0-3.2672,0-4.8419,0-2.6947.0006-5.39-.0418-8.0836.0208-1.3387.0312-1.8663-.2171-1.466-1.7536,1.3287-5.0994,1.2744-5.1121,6.5425-5.1037q3.6309.0059,7.2618.0007l.32-.6551c-1.0348-.6509-2-1.6629-3.1188-1.8772a54.8026,54.8026,0,0,0-7.0463-.6344c-1.3272-.0791-2.6629-.0143-4.354-.0143.6215-2.671,1.1294-5.0775,1.7924-7.44.09-.3218.9551-.6035,1.462-.6047Q602.66,41.74,616.2285,41.8a6.5542,6.5542,0,0,1,1.2176.3054c-.5576,2.0237-1.0389,3.9921-1.6855,5.9046-.1114.33-.9168.5675-1.4162.5963-1.3884.08-2.7845.0278-4.4164.0278.4289,1.3707.6824,2.4227,1.1025,3.4034a2.0236,2.0236,0,0,0,1.0823.8844,3.8344,3.8344,0,0,0,1.3335.0735c4.1344.0227,4.0044-.0076,3.0721,4.1491-.48,2.1415-1.3561,3.1555-3.6042,2.8122-.9135-.1395-1.7219-.0088-2.0489,1.1832-1.4589,5.3175-5.23,8.1408-10.3817,9.42C600.2451,70.6185,600.02,70.7317,599.4812,70.9369Z"/>
          <path class="cls-1" d="M382.5723,86.8677q0-12.7563-.0109-25.5391c-.0025-1.0912.4359-1.4236,1.5111-1.4176q15.4851.0855,30.9709.0762c1.3886-.0009,1.9563.42,1.8553,1.9064-.1344,1.9786-.0658,3.9739-.0206,5.9607.0268,1.1817-.3072,1.7143-1.6444,1.6973-6.9875-.0886-13.9768-.0434-20.9641-.1395-1.6-.022-2.1918.5147-2.0942,2.0928a32.8661,32.8661,0,0,1-.02,4.4215c-.1129,1.5377.5248,1.9981,2,1.9884,7.887-.0521,15.7745-.0231,23.6617-.0419,2.7482-.0066,2.7315-.0327,2.6748,2.7754-.035,1.7306.0675,3.4683-.0624,5.19-.0359.4758-.6816,1.2976-1.0509,1.2995-12.0529.0613-24.1062.0422-36.1594.0276C383.1045,87.1651,382.99,87.0642,382.5723,86.8677Z"/>
          <path class="cls-1" d="M648.3668,86.88c0-2.79,0-5.6006,0-8.4113,0-5.5147.0315-11.03-.0236-16.544-.014-1.4022.2524-2.0334,1.8894-2.0157q15.1.1634,30.2014.0911c1.7591-.009,2.23.5537,2.1011,2.2153a33.0574,33.0574,0,0,0,0,5.5727c.15,1.63-.6528,1.81-1.9187,1.7984-6.7947-.0649-13.5915-.025-20.3835-.1906-2.0186-.0492-2.6215.64-2.4377,2.53a22.1823,22.1823,0,0,1,.0132,4.0353c-.1374,1.589.5855,1.96,2.0185,1.9522,7.9514-.0421,15.904.04,23.8543-.0627,1.9553-.0253,2.6553.6073,2.53,2.5107-.1174,1.7884.0421,3.5981-.1317,5.3778-.05.5156-.8267,1.3746-1.2735,1.3767-11.9891.0554-23.9787.02-35.9682-.0043C648.7824,87.1111,648.7271,87.0594,648.3668,86.88Z"/>
          <path class="cls-1" d="M470.1838,86.962c-.0351-.6669-.09-1.2329-.0908-1.799-.006-7.6969.0479-15.3944-.0446-23.09-.0209-1.7427.5634-2.1737,2.2042-2.16q15.0081.1284,30.0176.088c1.48-.0023,2.0584.4494,1.98,1.998-.12,2.3593-.0313,4.7292-.0313,7.325h-24.624c0,2.7462-.0627,5.2768.0845,7.7952.0172.2927,1.1947.7347,1.8374.74,6.4138.0559,12.8282.0281,19.2424.0392,1.9236.0034,3.8553-.0331,5.7654.1432a1.91,1.91,0,0,1,1.34,1.2625,49.91,49.91,0,0,1-.0137,6.5335,1.887,1.887,0,0,1-1.3061,1.2937c-11.8657.0589-23.7318.0315-35.5978.0123A4.3606,4.3606,0,0,1,470.1838,86.962Z"/>
          <path class="cls-1" d="M328.9525,306.615c-1.5221,3.5551-2.8867,6.6344-4.1614,9.75-1.213,2.965-2.2954,5.9836-3.5261,8.9408-.2233.5366-.8674,1.2118-1.35,1.2386a2.0194,2.0194,0,0,1-1.4705-1.083c-3.84-8.5241-7.6154-17.0773-11.4066-25.6234a23.943,23.943,0,0,0-1.6169-3.4627c-.33-.5052-1.2032-.6535-1.8272-.97-.403-.2041-.8-.4192-1.2-.6293.38-.2289.7583-.6523,1.1417-.6572q7.4076-.0956,14.8164-.0609c.4239.0019.8461.3711,1.2691.57a12.3477,12.3477,0,0,1-1.2091.8385,6.8235,6.8235,0,0,1-1.371.3049l7.2161,16.5694.4835.0228c.9815-2.7294,1.9816-5.4525,2.9182-8.1972a1.846,1.846,0,0,0-.254-1.0978c-.8716-2.0643-1.6912-4.1568-2.6993-6.1535-.3147-.6233-1.16-.98-1.7635-1.4561-.3119-.246-.6275-.4873-.9415-.7307.3294-.2283.6428-.6194.9914-.6537.9528-.0938,1.92-.0377,2.8822-.04,3.3355-.0092,6.6717-.0546,10.0062.001a9.4033,9.4033,0,0,1,2.2145.5853l-2.1666,1.5633c2.1682,5.0922,4.4742,10.5078,6.9012,16.2079a6.334,6.334,0,0,0,.598-.9382c1.6165-4.8611,3.2151-9.7281,4.8329-14.5887.4273-1.2834-.3295-1.3389-1.2839-1.4347a22.0523,22.0523,0,0,1-2.7492-.6141,13.5713,13.5713,0,0,1,2.8188-.7539c2.11-.1094,4.2318-.0646,6.3446.02.4257.0171.8331.489,1.2489.7512-.4131.2076-.8671.649-1.2326.585-2.3316-.4087-3.1178.9935-3.7509,2.851q-4.6131,13.5363-9.3446,27.0322c-.1774.5072-.809,1.301-1.072,1.2435a2.5572,2.5572,0,0,1-1.6492-1.1206c-1.9076-4.1262-3.6778-8.3156-5.5447-12.4611C331.1443,310.9624,330.1263,309.0137,328.9525,306.615Z"/>
          <path class="cls-1" d="M815.4728,66.425c0-6.467.0605-12.935-.0427-19.4-.0257-1.6065.3934-2.2124,2.0052-2.1206a33.4546,33.4546,0,0,0,4.8069-.0314c1.8254-.16,2.4286.4534,2.415,2.3433-.0811,11.2883-.04,22.5775-.04,33.8665,0,1.2187.08,2.4445-.0284,3.6535a13.9774,13.9774,0,0,1-.6318,2.3907c-1.0331-.325-2.3305-.3623-3.0531-1.0256-2.97-2.7259-5.77-5.6372-8.6228-8.49-6.8787-6.8775-13.7754-13.7374-20.5915-20.6764a4.7949,4.7949,0,0,1-1.1831-2.82c-.1688-2.3612-.094-4.7436-.0316-7.1152a4.9793,4.9793,0,0,1,.4894-1.9949c1.0113.0748,2.3072.0733,2.9536.6878,4.0871,3.8854,8.0478,7.905,12.0126,11.9174,3.0078,3.0439,5.96,6.1428,8.9369,9.2173Z"/>
          <path class="cls-1" d="M491.9848,389.4688c-1.6533-4.3327-1.4106-5.2148,3.1164-10.3314-6.4614-2.5331-7.1315-9.0706-4.27-13.6435,2.0335-3.25,5.6428-4.3444,9.2668-4.7811a63.0881,63.0881,0,0,1,7.3868-.0543c-.1355-1.2264-.3556-2.4544-.3894-3.6874a5.2483,5.2483,0,0,1,3.1159-5.1184,6.5764,6.5764,0,0,1,6.4589.1323c2.0706,1.2119,2.5146,4.4591,1.0247,6.4557a3.5836,3.5836,0,0,1-5.3944.6636,3.3811,3.3811,0,0,1-1.3344-3.5676c.1332-.6625.2912-1.32.4594-2.0766-2.9205,1.0278-3.5294,5.32-1.2387,7.7647a22.28,22.28,0,0,0,2.3323,1.9872c5.9659,4.8178,4.7467,12.8449-2.3549,15.8356A20.1358,20.1358,0,0,1,499.59,380.13c-1.0779-.1338-2.2368-.4947-2.3125,1.2908-.0648,1.5315.3969,2.5226,2.0811,2.5485,3.908.06,7.8224-.0164,11.7232.1814,5.9927.3039,8.4139,5.0313,5.497,10.3484a10.6528,10.6528,0,0,1-9.7809,6.014,101.1068,101.1068,0,0,1-12.6-.9292c-3.4651-.4411-5.6413-2.9777-4.9285-5.6544C489.6618,392.4557,490.8906,391.2048,491.9848,389.4688ZM507.4932,371.39c-.18-2.3769-.2546-4.0419-.4446-5.6937a4.2087,4.2087,0,0,0-3.4108-3.4658c-1.5189-.2357-2.8984.1082-3.5932,1.5831-1.961,4.1631-1.6966,8.4638-.4018,12.7212a3.1318,3.1318,0,0,0,3.3475,2.35,3.51,3.51,0,0,0,3.418-2.5926A47.1774,47.1774,0,0,0,507.4932,371.39Zm-13.0827,20.4785a5.2963,5.2963,0,0,0,2.5784,5.58c4.362,2.7077,12.7332,1.9,16.4227-1.5836,1.361-1.2853,1.1088-2.809-.7-3.3683a14.251,14.251,0,0,0-3.9532-.6013C504.0415,391.826,499.3227,391.8682,494.4105,391.8682Z"/>
          <path class="cls-1" d="M770.4677,300.87c0-3.5272-.0217-6.7322.012-9.9366.0115-1.0906-.333-1.6627-1.5179-1.7306-.4187-.024-.81-.5348-1.2132-.8234.4176-.2879.8294-.8151,1.2537-.8254,3.0781-.0743,6.1589-.0194,9.2384-.0571,1.6543-.02,1.6079,1.052,1.5959,2.2128q-.1395,13.4687-.2461,26.9377c-.0182,2.2456.07,4.494-.017,6.7363-.0518,1.3384.2253,2.1081,1.7657,1.963.3347-.0315.7065.3287,1.0612.5086-.3624.2336-.72.6608-1.0879.67-3.1422.0825-6.4.6053-9.3923-.0522-2.21-.4856-3.9081.2159-5.7789.5986a11.6324,11.6324,0,0,1-14.1385-9.6318c-.8021-4.8579-.7649-9.627,2.0935-13.9045a10.8366,10.8366,0,0,1,15.49-3.1728C769.7866,300.4934,770.0016,300.6026,770.4677,300.87Zm.2726,10.95-.2069-.0253a51.874,51.874,0,0,1,.0418-5.5636,3.9663,3.9663,0,0,0-7.1062-3.0322,9.0018,9.0018,0,0,0-1.7274,2.9211,25.4818,25.4818,0,0,0-.4344,12.523,9.0192,9.0192,0,0,0,1.7507,4.1677,5.8843,5.8843,0,0,0,3.6879,1.79,2.8984,2.8984,0,0,0,3.0241-2.8848C770.1354,318.4216,770.4212,315.1188,770.74,311.82Z"/>
          <path class="cls-1" d="M368.6982,302.33c2.4415-1.8062,4.8317-3.1864,7.8011-3.2795,7.0417-.2207,10.7,3.201,10.9162,10.3866.0791,2.6283.023,5.2608.0254,7.8913.0022,2.5576,0,5.1151,0,7.6369l2.9094.7946q-.08.4418-.16.8835-4.1,0-8.2,0c-1.7965,0-3.5948.0408-5.3879-.0375-.3738-.0163-.7282-.4762-1.0915-.7317.33-.2347.6855-.6986.9877-.6665,1.78.1892,1.9953-.8393,1.9666-2.2325-.116-5.64-.1376-11.2832-.3159-16.9214-.0863-2.7307-2.0658-4.2167-5.1316-4.1374a4.9139,4.9139,0,0,0-4.407,4.4754c-.0129,6.2164-.0045,12.4328-.0045,18.7156l3.0824.5428-.0746.6032a5.2036,5.2036,0,0,1-1.1621.2862c-4.0413.0528-8.0831.1024-12.1243.0779-.5153-.0031-1.028-.4344-1.5419-.6673.48-.2665.9528-.74,1.4415-.7577,1.1189-.0394,1.41-.5461,1.4078-1.5684q-.0327-16.3611-.0056-32.7222c.0018-1.1-.321-1.661-1.5294-1.6763-.43-.0055-.8534-.5153-1.28-.7949.4709-.304.9347-.8577,1.4138-.8712,2.9491-.0831,5.9024-.0045,8.8526-.0646,1.2837-.0262,1.6453.5085,1.631,1.722C368.6671,293.5115,368.6982,297.8074,368.6982,302.33Z"/>
          <path class="cls-1" d="M405.2933,363.6517a12.8313,12.8313,0,0,1,11.3387-3.1077c3.995.73,6.3522,3.1781,6.8654,7.0161a105.5264,105.5264,0,0,1,.5155,11.1119c.069,2.55.0132,5.103.0132,7.7613l2.9.2391.1227.5545a3.6881,3.6881,0,0,1-1.2328.5295q-6.1526.1116-12.3068.1028a4.4372,4.4372,0,0,1-1.4468-.5639c.4694-.2937.9168-.7833,1.4128-.8389.9473-.1062,1.5941-.2564,1.57-1.4261-.1216-6.0193-.1436-12.0413-.3313-18.0582-.0744-2.3883-2.2807-3.9552-5.0239-3.8711-2.11.0646-4.4825,2.1941-4.4942,4.19-.036,6.1556-.0067,12.3115.0058,18.4673a3.2384,3.2384,0,0,0,.1924.6876,15.3594,15.3594,0,0,1,1.8256.1268,2.8593,2.8593,0,0,1,.8548.5087c-.301.2284-.5984.65-.9034.6559q-6.2484.1155-12.4984.0989c-.3761-.0014-.75-.4407-1.1256-.6767a6.7834,6.7834,0,0,1,1.1383-.69,7.38,7.38,0,0,1,1.3922-.2311V350.7507a5.0163,5.0163,0,0,1-1.0684-.2715c-.5358-.2685-1.029-.622-1.54-.94a5.0958,5.0958,0,0,1,1.6991-.7534c2.819-.0847,5.6431.0025,8.4624-.0766,1.3814-.0388,1.7381.4881,1.6943,1.818-.1226,3.7157-.11,7.4359-.1374,11.1544C405.1829,362.2677,405.2482,362.8541,405.2933,363.6517Z"/>
          <path class="cls-1" d="M797.6569,372.1929a18.016,18.016,0,0,1-11.267,1.2029c-4.6244-.9961-7.1957-3.7109-7.4677-7.8257-.3652-5.5276,1.7506-9.2939,6.2484-10.9209a20.5371,20.5371,0,0,1,12.6609-.3045c4.4535,1.213,6.7288,4.5079,7.9936,8.6128a25.7761,25.7761,0,0,1,.435,13.6876c-2.3154,9.7337-9.8654,13.5021-19.7011,11.3328a8.1022,8.1022,0,0,1-6.636-8.7348c.3951-2.549,2.31-4.272,4.8354-3.8045,1.2361.2288,2.8867,1.0786,3.3071,2.0836.4622,1.1048-.2152,2.7243-.5222,4.0913-.1006.4477-.5966.8063-.9107,1.2065-1.5653,1.9948-1.218,3.1577,1.2474,3.796,3.479.9008,8.5248-.3881,8.9816-5.538C797.1119,378.2545,797.3668,375.4315,797.6569,372.1929Zm-10.7647-8.4811a31.3818,31.3818,0,0,0,1.5118,5.399c1.45,3.0611,6.7192,3.3746,8.6588.6439a1.9245,1.9245,0,0,0,.297-1.2558c-.4472-3.3473-.76-6.73-1.5067-10.0129a3.97,3.97,0,0,0-3.8932-3.1619,3.6909,3.6909,0,0,0-3.7511,2.99C787.6928,360.0142,787.3577,361.7691,786.8922,363.7118Z"/>
          <path class="cls-1" d="M764.9616,372.3836A15.9169,15.9169,0,0,1,754.83,373.458c-3.8055-.69-6.862-2.4126-7.6587-6.5093-.8316-4.2771-.1156-8.1955,3.651-11.0073,4.5911-3.4274,14.4451-3.2023,18.8917.4189,2.8473,2.3187,4.1274,5.512,4.7281,8.9793.7845,4.5279.8756,9.1067-.7389,13.4706-3.0116,8.1395-10.2441,11.431-19.4079,9.0389-4.4945-1.1733-6.8632-4.5282-6.3024-8.9261a3.9094,3.9094,0,0,1,3.5538-3.4771c1.7391-.3223,3.4759-.0536,4.4087,1.5545a3.9765,3.9765,0,0,1-.4967,4.8278c-.0832.097-.2093.1689-.2623.2783-.5042,1.0407-.997,2.087-1.4931,3.1317,1.1842.5417,2.3258,1.401,3.56,1.5666,3.9825.5341,6.9352-1.6286,7.5771-5.5691.4636-2.8464.5707-5.7508.8368-8.6294Zm-10.0081-8.648a34.7608,34.7608,0,0,0,1.5565,5.5358c1.346,2.9418,6.9837,3.08,8.6889.3415a1.1739,1.1739,0,0,0,.2108-.7072c-.5425-3.6546-.9267-7.3475-1.7528-10.9384a3.8247,3.8247,0,0,0-7.3856.3125C755.8008,359.995,755.4313,361.7379,754.9535,363.7356Z"/>
          <path class="cls-1" d="M569.8609,326.6437c-3.6094,0-7.1278.0563-10.6407-.0567-.5706-.0184-1.117-.7866-1.9339-1.4043a14.9743,14.9743,0,0,1-9.8436,1.8976c-5.3193-.7931-7.9895-3.9077-8.0217-9.284-.0281-4.681-.0627-9.3624-.0268-14.0431.0114-1.5-.0311-2.7445-2.0711-2.5535-.2764.0258-.6013-.4655-.9037-.7173.3242-.22.6435-.6217.9733-.6306,3.2669-.0879,6.5355-.1183,9.8038-.1484,1.5-.0138,1.307,1.0964,1.3,2.0473-.0412,5.5786-.1046,11.1572-.1237,16.7358a9.9557,9.9557,0,0,0,.3076,2.4565c.7161,2.8225,2.2584,3.95,4.7615,3.6756,1.9937-.2188,4.6749-2.5446,4.5758-4.8849-.2169-5.1224-.123-10.2611-.0418-15.3913.0309-1.9494-.0576-3.5573-2.9664-3.0857l.0857-.5c.3128-.3075.6175-.8724.94-.8827,3.3949-.1083,6.795-.1949,10.1866-.08.3865.0131,1.0444,1.2925,1.045,1.9853.0065,6.8606-.0944,13.7214-.1763,20.582-.0194,1.62-.2824,3.3871,2.3021,3.0266a.5844.5844,0,0,1,.4508.2821C569.922,325.8183,569.8609,326.0411,569.8609,326.6437Z"/>
          <path class="cls-1" d="M726.7083,325.0575l2.9808.5958-.0687.5789c-.2093.0975-.4173.2776-.6278.28-4.2305.0545-8.4614.1111-12.6919.0919-.4195-.0019-.8367-.4914-1.255-.7546.3755-.2307.7477-.65,1.127-.657,1.203-.0209,1.5171-.6341,1.5141-1.7094-.0191-6.8607-.0306-13.7215.01-20.582.0078-1.3246-.6372-1.6153-1.774-1.6664-.339-.0153-.6552-.5362-.9819-.8255.3352-.2092.6662-.5925,1.006-.6,3.2028-.0748,6.4106-.1721,9.6075-.038.6021.0253,1.1624,1.0464,1.5,1.3737,2.5165-.6762,5.0855-1.828,7.7134-1.9834,7.0045-.4141,10.6033,3.17,10.7209,10.2286.0768,4.6154.0724,9.2331.025,13.849-.0139,1.3462.1238,2.278,1.8139,2.1235.3256-.03.6963.4354,1.0462.6722-.355.1729-.7077.4906-1.0654.4964-4.1025.0658-8.2058.1061-12.3087.0849-.46-.0024-.918-.4247-1.3769-.6522.4666-.2885.9364-.8223,1.3994-.8166,1.1274.0139,1.4676-.47,1.4535-1.4924-.0822-5.9588-.07-11.92-.25-17.8758-.0807-2.6769-2.8742-4.416-5.589-3.7362a5.3162,5.3162,0,0,0-3.928,4.9682q-.0022,7.7906-.0007,15.581Q726.7082,323.8236,726.7083,325.0575Z"/>
          <path class="cls-1" d="M454.4376,325.11a8.6464,8.6464,0,0,1,.9736.1974c.621.2177,1.2327.4619,1.8481.6956a7.1768,7.1768,0,0,1-1.8066.5276c-3.655.0779-7.3119.1179-10.9671.08a6.7079,6.7079,0,0,1-1.9639-.6664c.6383-.2572,1.2731-.5236,1.9167-.7666a5.2207,5.2207,0,0,1,.6881-.1673c.1064-.158.2353-.26.2343-.3607-.06-6.2746-.0161-12.5535-.2544-18.8215-.0988-2.5982-2.3459-4.0971-4.9782-3.8547a5.2007,5.2007,0,0,0-4.5134,4.6155q-.013,8.3716-.0048,16.7433c0,.5645.0568,1.1289.0891,1.7264l2.8927.6493-.0685.59a8.1749,8.1749,0,0,1-1.3744.2487c-3.7841.0475-7.5689.1014-11.3524.06a5.6286,5.6286,0,0,1-1.8279-.7271c.5721-.2352,1.1423-.4753,1.7175-.7027.1755-.0694.3648-.1037.7507-.21.0573-.8859.1683-1.8236.1706-2.7616.0152-6.2225-.01-12.4451.0205-18.6674.0067-1.36-.0785-2.4727-1.8932-2.3331-.2431.0187-.52-.4023-.7815-.62.2958-.2473.5848-.7.8884-.71,3.2675-.1078,6.54-.225,9.8043-.1293.5833.0171,1.1384.995,1.4776,1.314,2.4255-.6388,4.9573-1.7581,7.5426-1.8994,7.0711-.3865,10.6322,3.1552,10.7351,10.2286.0662,4.5538.028,9.1091.0362,13.6637C454.4386,323.6869,454.4376,324.3207,454.4376,325.11Z"/>
          <path class="cls-1" d="M426.577,87.1762c0-1.3209,0-2.3953,0-3.47,0-7.18.0356-14.3593-.027-21.5382-.0132-1.5143.3371-2.1854,2.0056-2.1751q15.0956.094,30.1919.017c1.5209-.0072,2.0613.4917,1.9781,2.0027a37.19,37.19,0,0,0,.0194,5.5717c.156,1.6268-.49,1.943-1.9318,1.9282-6.6658-.0681-13.3323-.0576-19.9986-.07-2.7819-.0054-2.7853,0-2.7847,2.8754.0008,4.3589-.0326,8.7185.0353,13.0765.02,1.2712-.2382,1.8714-1.6746,1.8109C431.9015,87.1005,429.4047,87.1762,426.577,87.1762Z"/>
          <path class="cls-1" d="M739.5443,87.17c-3.8727,0-7.3242.06-10.7695-.0579a2.5568,2.5568,0,0,1-1.6905-1.2495c-4.454-7.92-8.8406-15.8784-13.25-23.8237-1.3028-2.3474-2.7237-4.6367-3.8813-7.0528a3.69,3.69,0,0,1-.012-2.7869,68.4438,68.4438,0,0,1,3.4184-6.2191c.9853-1.6633,2.5612-1.65,3.4978.0295q9.1624,16.4315,18.2854,32.8849c1.1811,2.1249,2.3775,4.2414,3.5486,6.3718C738.957,85.75,739.1467,86.2748,739.5443,87.17Z"/>
          <path class="cls-1" d="M665.75,386.2436c-2.3249,2.6312-8.8237,2.4675-12.0792-.22a16.6211,16.6211,0,0,1-9.9061,2.17c-3.3473-.2168-5.56-1.626-6.0856-4.0035-.7908-3.5748.45-7.0863,3.4941-8.36a62.3775,62.3775,0,0,1,8.2715-2.289c.3691-.0971.7628-.0964,1.1421-.1587,2.8472-.4676,2.8642-.48,2.7258-3.4311-.072-1.5369-.1138-3.0795-.2879-4.606a3.2576,3.2576,0,0,0-3.5605-3.2414c-2.1068-.0174-2.6994.7459-2.3265,2.8428a18.4492,18.4492,0,0,1,.3251,3.245,4.4868,4.4868,0,0,1-4.6211,4.19,4.4153,4.4153,0,0,1-4.1161-4.0649c-.1226-3.2711,1.7342-5.3733,4.5083-6.4966a20.2025,20.2025,0,0,1,14.8192-.1617c2.62.947,3.5622,3.3127,3.8194,5.786.3436,3.3036.3385,6.6446.4479,9.9707.0569,1.73-.0036,3.4634.0631,5.1925C662.502,385.6905,662.64,385.82,665.75,386.2436Zm-12.4878-11.6994a23.3885,23.3885,0,0,0-3.7587.7143c-3.8987,1.4512-4.9128,6.9036-1.8172,9.4354,1.9389,1.5857,5.2428.9316,5.4979-1.2932A80.2688,80.2688,0,0,0,653.2618,374.5442Z"/>
          <path class="cls-1" d="M458.6452,386.379c-2.9589,2.5176-9.0269,2.2995-12.1027-.3722a17.1385,17.1385,0,0,1-10.0832,2.1982c-3.0224-.1727-5.1988-1.4327-5.8335-3.5488a7.8,7.8,0,0,1,2.3153-8.2156c2.2767-1.8208,5.0435-2.0892,7.7329-2.6218,1.3831-.2739,2.7758-.5136,4.1738-.6937,1.0218-.1316,1.4536-.6049,1.3853-1.649-.138-2.1087-.108-4.2337-.3462-6.3293a3.6166,3.6166,0,0,0-5.0751-2.8226c-.9122.3917-1.4718.94-1.0665,2.091a11.8758,11.8758,0,0,1,.5318,2.6271c.2649,2.3948-.5975,4.0107-2.5263,4.88a4.163,4.163,0,0,1-5.0918-.9833,4.9,4.9,0,0,1-.5833-5.5652c1.67-3.026,4.4851-4.3551,7.7507-4.6465a50.3263,50.3263,0,0,1,7.2752-.0207c4.6907.2643,7.2467,2.5322,7.6942,7.2293.376,3.9454.2739,7.9367.375,11.9079.0229.8979,0,1.7969.0171,2.695C455.2441,385.409,455.3128,385.4847,458.6452,386.379ZM446.169,374.7664c-2.9726-.24-5.1356.5681-6.5952,2.8257a5.3173,5.3173,0,0,0-.1521,5.8038,3.8377,3.8377,0,0,0,3.9686,2.1252c1.3074-.1511,2.6517-.7348,2.7345-2.23C446.279,380.5049,446.169,377.7043,446.169,374.7664Z"/>
          <path class="cls-1" d="M613.1223,374.4836a13.6552,13.6552,0,0,1-13.9092,14.0048c-9.5148-.087-15.49-5.4231-15.4779-13.8217.0126-8.5825,5.9953-14.373,14.8314-14.3551C607.238,360.3292,613.1357,366.0715,613.1223,374.4836Zm-20.6139-.3307c.6073,3.5217.8488,6.8773,1.8191,10.0069.9977,3.2179,5.0442,3.8019,7.3039,1.27a6.9033,6.9033,0,0,0,1.5775-3.0068,39.2568,39.2568,0,0,0-.1105-16.6,4.9669,4.9669,0,0,0-4.1527-3.7206c-2.1371-.1739-3.7447.586-4.442,2.8663C593.5821,367.9822,593.139,371.1423,592.5084,374.1529Z"/>
          <path class="cls-1" d="M534.5718,313.2548a13.4478,13.4478,0,0,1-13.3245,13.98c-10.2854.2072-16.1605-5.28-16.0915-14.5576.058-7.8077,6.5444-13.659,15.0658-13.5908C528.76,299.1544,534.6311,304.9518,534.5718,313.2548Zm-20.5405-.6959c.5165,3.5493.7427,6.6946,1.4766,9.7166.7871,3.2411,3.8046,4.5219,6.5469,2.7235a6.6074,6.6074,0,0,0,2.5623-4.021,61.5556,61.5556,0,0,0,.8-10.4932,24.255,24.255,0,0,0-1.1916-6.58,4.2373,4.2373,0,0,0-4.2614-3.0231,3.7975,3.7975,0,0,0-4.0552,2.8756C515.1132,306.7556,514.6,309.8284,514.0313,312.5589Z"/>
          <path class="cls-1" d="M625.47,299.8009c2.5672,0,4.4775-.06,6.38.0374a4.9257,4.9257,0,0,1,1.6412.7768,5.5344,5.5344,0,0,1-1.6154.6037c-1.9109.0748-3.8266.029-5.8938.029v23.79l2.83.6238-.0612.6557H614.2779l-.2785-.4294,2.6646-1.3451c.03-.5863.1182-1.5216.1207-2.457.0165-6.2232-.0127-12.4468.0395-18.67.012-1.43-.1684-2.3846-1.9524-2.2193-.446.0414-.9462-.501-1.4215-.775.4743-.1932.9664-.584,1.42-.5431,1.4765.1329,1.8783-.6007,1.9959-1.9049a16.5808,16.5808,0,0,1,.71-3.7688c1.6231-4.8338,5.0192-7.2212,10.1826-7.1128a21.2845,21.2845,0,0,1,5.47.6659,5.1141,5.1141,0,0,1,3.7262,5.2305,3.1925,3.1925,0,0,1-3.2657,3.1027c-1.71.007-2.6848-.9793-2.9325-2.9086a9.6882,9.6882,0,0,0-.5272-2.8089,2.7459,2.7459,0,0,0-1.6992-1.4452c-.4273-.0721-1.3723.7811-1.4845,1.3405C626.4344,293.3174,626.01,296.4027,625.47,299.8009Z"/>
          <path class="cls-1" d="M800.3654,327.61c-4.6741-.3516-8.3746-.7238-11.709-2.526a5.2567,5.2567,0,0,1-2.847-5.27,3.1753,3.1753,0,0,1,2.5257-3.2083,3.762,3.762,0,0,1,4.0975,1.4159c1.0418,1.3446.405,2.5243-.35,3.696-1.3427,2.0842-1.2157,2.97,1.1573,3.2989a47.3626,47.3626,0,0,0,9.5067.1856c.8007-.0517,1.9264-1.3926,2.1371-2.3159a3.04,3.04,0,0,0-1.2419-2.6383c-2.4495-1.1888-5.0752-2.017-7.6408-2.9639-2.214-.8171-4.66-1.2539-6.6125-2.4817-4.6509-2.9254-4.8348-9.0792-.64-12.821,4.0827-3.642,13.53-3.9318,17.855-.5479,1.8285,1.4307,2.6388,3.5339,1.7172,5.6039a4.603,4.603,0,0,1-2.5238,2.2077,2.9426,2.9426,0,0,1-3.7281-1.5815,4.3816,4.3816,0,0,1,.3793-3.3271c1.1934-2.1277,1.1945-2.6685-1.2582-3.0157a18.0373,18.0373,0,0,0-6.2111.0937,3.8153,3.8153,0,0,0-2.5074,2.627,4.35,4.35,0,0,0,2.0971,3.2022c1.8244.9675,4.0252,1.1925,5.976,1.9624a54.5166,54.5166,0,0,1,7.4353,3.401c4.4105,2.5649,3.4223,11.3676-1.6759,13.4819A36.2065,36.2065,0,0,1,800.3654,327.61Z"/>
          <path class="cls-1" d="M487.2971,300.85l-3.1088.8168,7.1338,14.4215,6.1932-14.8335a31.0025,31.0025,0,0,1-3.3048-.0381c-.3652-.0423-.68-.5159-1.0184-.7928.3407-.2064.6786-.5859,1.0227-.5916q3.94-.0648,7.8813.0218c.3418.0076.6751.4,1.0123.6137-.2928.26-.6343.7824-.8711.7387-3.0093-.5547-3.4214,1.8285-4.2415,3.7034-4.2316,9.6744-8.37,19.39-12.6946,29.0228-1.6984,3.783-4.6941,5.7753-9.0682,5.383-2.4858-.2229-4.3593-1.38-4.8529-3.3661a4.9142,4.9142,0,0,1,2.2712-5.6135,5.9025,5.9025,0,0,1,6.3685,1.3544c2.71,3.0575,2.7391,2.8864,4.7015-.7755,1.6912-3.1559,1.3179-5.5934-.4774-8.6261-3.7144-6.2745-6.9216-12.85-10.3145-19.3137-.5123-.976-.87-2.0169-2.3308-1.7447-.2236.0416-.5362-.3947-.8076-.61.2837-.2687.5645-.768.8514-.7715q7.0131-.0863,14.0271-.0252C486.0938,299.8283,486.5128,300.3381,487.2971,300.85Z"/>
          <path class="cls-1" d="M547.4487,376.33l-8.7093,0-8.4037,0c-.29,7.0944,3.46,11.0406,9.6827,9.3191a39.3174,39.3174,0,0,0,5.145-2.35,6.3743,6.3743,0,0,1,1.4711-.2748,4.001,4.001,0,0,1-.3758,1.5049,9.3172,9.3172,0,0,1-6.977,3.6006,40.5431,40.5431,0,0,1-9.4879-.7029,9.8363,9.8363,0,0,1-8.2952-8.5074c-.8043-4.5919-1.0872-9.2386,1.8191-13.3239,3.2912-4.6264,9.3623-6.3813,15.5311-4.6513,4.5706,1.2817,7.8385,5.7795,8.3683,11.5492C547.3217,373.6324,547.3572,374.7784,547.4487,376.33Zm-13.2171-1.4807a15.7893,15.7893,0,0,0,3.2417-.0653c.5278-.1126,1.3254-.9375,1.2908-1.3857a45.3379,45.3379,0,0,0-1.1-8.319,4.8561,4.8561,0,0,0-2.977-2.8513c-1.5524-.4175-2.6235,1.0636-3.0715,2.5455a31.078,31.078,0,0,0-1.4387,5.9125C529.6854,375.822,529.26,374.9052,534.2316,374.8489Z"/>
          <path class="cls-1" d="M710.8912,315.0756H693.76c.1476,2.8452.5,5.3762,2.236,7.5367,1.9792,2.4636,4.6646,2.6371,7.3407,1.8949a61.9437,61.9437,0,0,0,6.9671-2.8187l.3979.4257a13.51,13.51,0,0,1-1.9269,2.3233c-4.0988,3.1684-8.7955,3.1183-13.5854,2.2959-8.636-1.4828-10.97-7.3846-10.544-15.4047.2749-5.18,2.6321-9.1226,7.536-11.0866,5.0973-2.0414,10.1033-1.7593,14.4993,1.8407,2.8541,2.3374,3.68,5.7661,4.1848,9.2333A28.2862,28.2862,0,0,1,710.8912,315.0756Zm-17.7662-1.5778h9.75c-.491-3.3381-.8029-6.3953-1.4363-9.3844-.3348-1.58-1.368-3.11-3.1775-3.2-1.7892-.09-2.7448,1.356-3.12,2.9153C694.3848,306.9751,693.8084,310.1652,693.125,313.4978Z"/>
          <path class="cls-1" d="M419.9353,315.0144H402.3181a51,51,0,0,0,1.4378,5.5764,6.1235,6.1235,0,0,0,6.5962,4.226,12.5591,12.5591,0,0,0,7.29-2.6025,4.2521,4.2521,0,0,1,1.4493-.4337c-.1156.5544-.0523,1.2631-.3759,1.638a10.4164,10.4164,0,0,1-7.7854,3.6652,41.763,41.763,0,0,1-9.6476-1.2125c-3.7759-.8415-5.9655-3.6142-7.0618-7.2011a19.24,19.24,0,0,1-.2437-10.0819c1.1663-5.0417,4.5688-7.9656,9.414-9.09,4.9652-1.1526,9.7091-.4132,13.2146,3.6232C419.43,306.3725,419.9518,310.5021,419.9353,315.0144Zm-8.316-1.3879c-.2292-3.9633-.3472-7.678-2.0791-11.0536a2.6339,2.6339,0,0,0-4.8686-.072c-1.9009,3.4582-2.2992,7.2165-2.1341,11.1256Z"/>
          <path class="cls-1" d="M360.105,376.2357h-16.87c-.5737,5.3836,2.4817,11.4719,9.5332,9.5224a37.45,37.45,0,0,0,4.9852-2.2605,12.8223,12.8223,0,0,1,1.6309-.4891c-.1247.5588-.0723,1.271-.4022,1.6522a11.2687,11.2687,0,0,1-9.5187,3.6927,35.8049,35.8049,0,0,1-9.1748-1.7413,8.2989,8.2989,0,0,1-5.637-6.7868,31.7452,31.7452,0,0,1-.3878-8.3172c.6825-6.73,5.2174-10.7836,12.0017-11.1739,7.8284-.45,13.07,4.1711,13.8254,12.2373C360.1962,373.7017,360.105,374.85,360.105,376.2357Zm-12.9375-1.279c4.7242-.2082,4.7241-.2082,4.3278-4.9529a3.6373,3.6373,0,0,0-.045-.574,27.5034,27.5034,0,0,0-1.4482-5.31,3.6789,3.6789,0,0,0-2.7638-1.8694,3.8659,3.8659,0,0,0-2.5122,2.21,21.6529,21.6529,0,0,0-1.6377,6.0357C342.5253,375.8084,342.2224,374.9222,347.1675,374.9567Z"/>
          <path class="cls-1" d="M401.2757,54.5418c-5.5732,0-11.1471-.0482-16.7192.0319-1.4948.0215-2.0939-.3374-1.9648-1.9292a31.3018,31.3018,0,0,0,.0212-5.566c-.1718-1.7457.5562-2.0261,2.066-2.0187,10.25.05,20.4992.032,30.7489.0337,5.0921.0009,5.0921-.0012,5.05,5.0009-.0378,4.48-.0378,4.4779-4.5962,4.4754q-7.3029-.0039-14.6058-.0006Z"/>
          <path class="cls-1" d="M445.4865,45.0878q8.17.0027,16.34.0036c2.4949.0027,2.5377.0468,2.561,2.6015.0152,1.6658-.0105,3.3321.0079,4.9979.0135,1.2071-.354,1.8712-1.76,1.8675q-17.2048-.0449-34.41.0237c-1.2411.0043-1.7118-.416-1.6645-1.6725.0748-1.9835.1041-3.9774-.0164-5.9566-.0878-1.443.4021-1.9064,1.8332-1.8914C434.08,45.121,439.7835,45.086,445.4865,45.0878Z"/>
          <path class="cls-1" d="M488.8615,54.5507c-5.58,0-11.161-.0454-16.74.029-1.5805.0211-2.18-.4627-2.0649-2.08a36.0521,36.0521,0,0,0,.0014-5.3831c-.1328-1.6852.5932-2.0595,2.1088-2.0493,7.6323.0511,15.2652.0253,22.8978.0266,3.656.0006,7.3129.0475,10.9675-.0214,1.42-.0268,1.97.4778,1.8991,1.8978a49.8938,49.8938,0,0,0-.0539,5.7661c.1016,1.5342-.5362,1.8528-1.89,1.8419-5.7081-.046-11.4168-.0194-17.1252-.0194Z"/>
          <path class="cls-1" d="M667.0582,54.5672c-5.5722,0-11.1447-.0354-16.7162.0243-1.4434.0154-2.1005-.3563-2.001-1.9314a49.8736,49.8736,0,0,0-.002-5.7609c-.0705-1.3376.3965-1.8643,1.7335-1.8254,2.0479.06,4.0986.02,6.1481.02,9.1588-.0008,18.3183.0544,27.4759-.0488,1.9931-.0225,2.6112.679,2.5035,2.5354-.0963,1.66-.06,3.3306-.0049,4.994.0484,1.4631-.53,2.0115-2.0367,1.9935-5.6994-.0681-11.4-.0274-17.1-.0274Z"/>
          <path class="cls-1" d="M681.0148,386.3411l2.8388.5217q-.045.3189-.09.6379a6.16,6.16,0,0,1-1.1887.2526c-3.8465.0613-7.6936.1315-11.54.1056a5.94,5.94,0,0,1-1.8862-.7132c.5724-.2472,1.1418-.5018,1.7191-.7368a6.182,6.182,0,0,1,.7839-.1773c.0622-.881.1834-1.81.1848-2.7388q.0245-15.2015.0139-30.4029c0-1.3279.3042-2.874-1.9185-2.67-.2061.0189-.4708-.6011-.7083-.9244.3866-.2532.7667-.7128,1.161-.7253,2.1781-.07,4.36-.0274,6.54-.0284,4.1118-.0019,4.0329-.0037,4.01,4.0946-.06,10.647-.0448,21.2944-.0511,31.9416C680.8833,385.28,680.9659,385.7826,681.0148,386.3411Z"/>
          <path class="cls-1" d="M372.2555,373.1216c.4482,3.0295.5849,5.1549,1.097,7.1857,1.41,5.59,6.19,6.7131,10.6909,5.0329a21.58,21.58,0,0,0,3.0564-1.9319,6.8788,6.8788,0,0,1,1.448-.4711c-.09.5627.0123,1.2851-.3012,1.6616-1.6588,1.9922-3.82,3.493-6.3954,3.5a48.0531,48.0531,0,0,1-10.4464-.9227,8.8155,8.8155,0,0,1-7.1618-8.0576,31.246,31.246,0,0,1,.0888-9.8633c1.161-5.3321,6.1281-8.729,12.2847-8.8579a23.4235,23.4235,0,0,1,7.526,1.0624,7.5042,7.5042,0,0,1,5.2489,7.2836,4.646,4.646,0,1,1-9.2883-.1786c.0238-.6994.2409-1.3907.2877-2.0913.1081-1.617.71-3.477-1.3429-4.3457-1.4973-.6337-3.7385.4346-4.4484,2.4492C373.5324,367.6054,372.8794,370.78,372.2555,373.1216Z"/>
          <path class="cls-1" d="M573.4946,325.8756a4.9751,4.9751,0,0,1,1.47-.6615c1.071-.099,1.4049-.6252,1.4021-1.63-.0195-6.86-.03-13.7206.0066-20.5807.0067-1.2567-.56-1.6985-1.7124-1.7845-.3533-.0264-.6829-.3708-1.0234-.57.34-.2789.673-.79,1.021-.8,3.2651-.0975,6.5339-.156,9.7982-.081.3668.0084.9556.8825,1.02,1.4068a33.16,33.16,0,0,1,.0487,3.9125,21.4623,21.4623,0,0,1,1.4351-3,8.2338,8.2338,0,0,1,9.6867-2.519c1.7569.8284,2.507,2.4921,2.1934,4.8647a4.4257,4.4257,0,0,1-3.5133,3.6377,4.1042,4.1042,0,0,1-4.37-2.0807c-.1593-.2761-.228-.6082-.4042-.87-.468-.6962-.9719-1.3682-1.4616-2.05-.6217.6829-1.62,1.2793-1.8,2.0636a88.3157,88.3157,0,0,0-1.855,10.14c-.2911,2.6605-.0046,5.38-.0671,8.0714-.03,1.2942.1918,2.1247,1.7518,2.0034.4083-.0317.8472.33,1.2721.5107l-.1449.5531H573.7079Z"/>
          <path class="cls-1" d="M650.9559,325.03l2.8908.6649-.0751.5787a4.2241,4.2241,0,0,1-.9994.2624c-4.04.0506-8.0815.1032-12.1218.0766-.49-.0032-.9761-.4666-1.4641-.7168.4259-.2757.843-.7675,1.2795-.7853,1.1774-.0479,1.3652-.7513,1.3653-1.6612q0-10.296-.0046-20.592c.0012-1.0922-.3758-1.6725-1.58-1.6457-.3509.0078-.7122-.4509-1.0687-.6958.3885-.233.7707-.6559,1.1663-.6689,3.0742-.1009,6.1513-.11,9.2269-.1758,1.1579-.0248,1.636.4479,1.4991,1.63-.14,1.2052-.1733,2.4227-.2869,4.1422a6.6386,6.6386,0,0,0,.5252-.9281c1.4272-5.2881,6.0962-6.0745,10.0507-5.2078a3.812,3.812,0,0,1,2.9832,3.9587c.0145,2.5319-1.1575,4.1955-3.3518,4.7576a4.1092,4.1092,0,0,1-4.5783-2.03c-.1313-.2184-.1945-.48-.3359-.69-.5056-.7509-1.0313-1.4883-1.5494-2.2308-.6584.81-1.6656,1.5278-1.9093,2.4477a44.9564,44.9564,0,0,0-1.5958,8.2445C650.7563,317.5112,650.9559,321.29,650.9559,325.03Z"/>
          <path class="cls-1" d="M473.449,366.52c2.2331-6.5849,7.0277-6.89,10.6892-5.81,2.162.6377,2.93,2.19,2.6526,4.6982a4.432,4.432,0,0,1-4.0162,4.01,4.2249,4.2249,0,0,1-4.11-2.8473,3.1193,3.1193,0,0,0-.26-.7206c-.3982-.54-.8447-1.0452-1.272-1.5641-.5388.4813-1.364.8657-1.5653,1.461a27.3868,27.3868,0,0,0-1.8477,6.811c-.2852,4.5793-.0843,9.1889-.0843,13.902l2.7368.196c-.4775,1.0518-9.6524,1.7657-13.7807,1.1885-.4124-.0577-.7645-.5464-1.4408-1.06,3.2071-.6238,3.2066-.6238,3.2061-3.4656-.0012-6.2246-.0153-12.4493.008-18.6739.0051-1.3548-.04-2.5071-1.93-2.2156-.26.04-.6022-.4595-.9064-.7093.3076-.2442.6127-.6968.9232-.7,3.2715-.0387,6.5454-.0515,9.8138.0647.4087.0145,1.0623.7767,1.129,1.2581A33.4992,33.4992,0,0,1,473.449,366.52Z"/>
          <path class="cls-1" d="M709.1282,362.1889a5.1911,5.1911,0,0,0-4.7111-5.18c-1.3265-.193-2.6853-.1592-4.0158-.3328-.4008-.0523-.7557-.4568-1.1315-.7.3892-.2361.777-.6753,1.1679-.6781q10.3818-.0744,20.764-.0217c.3664.0018.73.4707,1.0953.7223-.39.2286-.7754.6447-1.1713.6552-2.35.0624-4.7018.0308-6.6624.0308a54.1683,54.1683,0,0,0,3.0426,4.7494c.42.5384,1.4437.6269,2.2081.87.8642.2744,1.7467.4914,2.6212.7334-.8777.247-1.7438.5562-2.6366.7217-.7479.1386-1.7559-.3849-1.8847.9692-.4584,4.82-3.9034,6.5492-7.9516,7.6313-.5951.159-1.2129.2326-2.0277.3844,3.0049,1.5552,5.0852,3.5454,5.9393,6.6841a47.9051,47.9051,0,0,0,1.73,4.6782c.7015,1.8074,2.0805,2.2533,3.88,1.9544a4.8642,4.8642,0,0,1,1.4547.2093c-.3655.364-.6674.91-1.1064,1.0632a14.0815,14.0815,0,0,1-9.7887-.2258,8.2447,8.2447,0,0,1-4.6827-5.0811c-.6583-1.6669-1.1482-3.4144-1.9509-5.006a28.7821,28.7821,0,0,0-2.4943-3.569q-.5172-.7241-1.036-1.4469a10.0076,10.0076,0,0,1,1.801-.7253c.8111-.162,1.6633-.1043,2.4887-.2115a6.5139,6.5139,0,0,0,5.4417-5.187c.1662-1.2552-.13-1.952-1.5861-1.9155q-3.557.0891-7.1173-.0542c-.5014-.0209-.9823-.5367-1.4726-.8245.48-.2991.9518-.8419,1.44-.8568C703.5115,362.1454,706.2514,362.1889,709.1282,362.1889Z"/>
          <path class="cls-1" d="M318.56,386.4046l2.8736.3035.1209.5158c-.3686.1785-.7346.5061-1.1062.5127q-6.1531.1089-12.3078.1054c-.4128-.0007-.825-.3657-1.2374-.5615.3943-.2848.7966-.5592,1.1809-.8568.4779-.37,1.3471-.756,1.35-1.1412.0641-7.3694.0273-14.74-.0008-22.11-.0006-.1755-.14-.3505-.051-.1416l-2.4857-1.3893a14.3374,14.3374,0,0,1,2.5718-.5888c2.4315-.1141,4.8724-.0363,7.3026-.1665,1.5348-.0823,2.07.497,1.9309,1.9886-.1,1.078-.02,2.1728-.02,3.4793a7.9736,7.9736,0,0,0,.4324-.8509,7.6075,7.6075,0,0,1,10.3656-4.7327c1.9625.7623,2.7747,2.2453,2.5287,4.617a4.3939,4.3939,0,0,1-3.6537,3.9222,4.3359,4.3359,0,0,1-4.52-2.5275,23.8118,23.8118,0,0,0-1.55-2.4366c-.6933.8452-1.778,1.5964-2.0077,2.5529a62.8988,62.8988,0,0,0-1.6571,9.3961C318.3456,379.5925,318.56,382.931,318.56,386.4046Z"/>
          <path class="cls-1" d="M739.3248,386.4489l3.8953.2355.1173.5618c-.364.1726-.7259.4908-1.0922.4956q-7.5952.101-15.1915.0983c-.4041-.0006-.8076-.3964-1.2114-.6086.4092-.2747.7949-.73,1.2324-.7867a25.1585,25.1585,0,0,1,3.065-.0373V359.425a31.9254,31.9254,0,0,1-3.1039.9249,4.074,4.074,0,0,1-1.48-.2921c.2424-.3992.3894-.9985.7419-1.1664,3.468-1.6519,6.9235-3.3469,10.48-4.7893,2.1089-.8554,2.7419-.2452,2.7281,2.0814q-.0819,13.7527-.18,27.5054C739.32,384.5674,739.3248,385.4461,739.3248,386.4489Z"/>
          <path class="cls-1" d="M627.9626,362.4215a9.9968,9.9968,0,0,0-.264,1.5249c.0073,5.6463-.16,11.3027.1291,16.9354.1837,3.5743,2.1553,5.5631,5.6635,4.4908a.3964.3964,0,0,1,.1863-.04c.4832.1257.9638.2609,1.4453.3934-.2933.4457-.488,1.1091-.8989,1.2951a9.4657,9.4657,0,0,1-3.442,1.1026,28.8545,28.8545,0,0,1-7.0227-.43c-3.1535-.71-5.0759-4.2238-5.07-8.4191.005-3.7215.0248-7.443.0365-11.1644.003-.9625.0011-1.9251,0-2.8876-.0026-2.7136-.0028-2.7136-2.68-2.7675-.0641-.0013-.1384.0211-.1909-.0036-.4491-.2116-.8943-.4315-1.3407-.6489.4793-.26.9683-.76,1.4364-.7415,2.9727.12,5.6922-.5336,7.6033-2.9012a35.214,35.214,0,0,0,2.6236-4.6211,10.8523,10.8523,0,0,1,1.0716-1.3328,6.8016,6.8016,0,0,1,.5308,1.6908,42.2227,42.2227,0,0,1,.0078,5.0019c-.1283,1.7286.6166,2.321,2.231,2.2132a24.8569,24.8569,0,0,1,3.2674-.0454c.3809.0248.7371.4286,1.1045.6594-.3621.2319-.7166.6487-1.0878.6641C631.578,362.4613,629.849,362.4215,627.9626,362.4215Z"/>
          <path class="cls-1" d="M582.2371,385.6769c-.5283.5457-.9581,1.31-1.6016,1.6a14.0076,14.0076,0,0,1-9.7743.5152c-3.3-.92-5.1738-3.7659-5.2435-8.07-.08-4.9353-.0288-9.8728-.0344-14.8093-.0007-.6993,0-1.3985,0-2.4594-1.1214,0-2.1188.0671-3.0993-.0326-.4-.0406-.763-.443-1.1428-.6807a4.3447,4.3447,0,0,1,1.1291-.6889c2.0753-.5012,4.3345-.5852,6.21-1.4821,2.4-1.1474,3.55-3.5714,4.3489-6.0919.158-.4987.7049-.8742,1.0725-1.3066a5.3816,5.3816,0,0,1,.5368,1.5,34.75,34.75,0,0,1,.0046,4.9955c-.2049,2.0243.6418,2.6452,2.5144,2.4538a17.7111,17.7111,0,0,1,3.0725-.0236c.3312.0241.6352.4213.9517.6478-.3109.2285-.614.64-.934.6541-1.4067.06-2.82.0432-4.2276-.0205-1.0686-.0484-1.5009.3776-1.4913,1.4487.0511,5.7051-.0881,11.4173.1585,17.1132.1458,3.3673,2.1611,5.56,5.7283,4.422a8.1994,8.1994,0,0,1,1.3064-.2Z"/>
          <path class="cls-1" d="M690.3963,87.1715l15.5714-27.9281c2.09,3.704,3.9273,6.8282,5.59,10.0424.2638.51-.0986,1.5105-.4391,2.1395q-3.9245,7.25-7.9863,14.4254c-.307.5426-.9558,1.2466-1.4654,1.2627C698.16,87.224,694.6475,87.1715,690.3963,87.1715Z"/>
          <path class="cls-1" d="M678.5671,325.0488l3.0106.6124-.0573.6251a7.595,7.595,0,0,1-1.3322.2532c-3.8416.0518-7.6836.1041-11.5251.0789a5.8143,5.8143,0,0,1-1.7608-.6194c.5823-.3182,1.1605-.6443,1.75-.9494a4.568,4.568,0,0,1,.7114-.2058c.06-.7052.1779-1.45.1789-2.1954.0089-6.4037-.009-12.8074-.0038-19.2112.001-1.123.1195-2.25-1.5474-2.2488-.2111,0-.4224-.4923-.6336-.7565.2821-.202.5637-.5785.8464-.5793,3.2-.0084,6.4028-.0174,9.5942.1635.3213.0182.8149,1.2774.8182,1.9627.0332,6.7874-.02,13.5752-.0485,20.3629C678.564,323.227,678.5671,324.1123,678.5671,325.0488Z"/>
          <path class="cls-1" d="M610.0335,122.3049a9.837,9.837,0,1,1,10.1005-9.4744A9.7488,9.7488,0,0,1,610.0335,122.3049Zm.3665-4.6207a5.3233,5.3233,0,0,0,5.1835-5.2911,5.4414,5.4414,0,0,0-5.3252-5.17,5.2308,5.2308,0,1,0,.1417,10.4607Z"/>
          <path class="cls-1" d="M561.7163,109.6881c0,1.4754-.0478,2.9526.0092,4.4257.1563,4.04-2.2134,6.2658-5.59,7.65a9.963,9.963,0,0,1-10.6243-2.4807,7.5414,7.5414,0,0,1-1.7471-5.3493c-.0718-3.1426.0456-6.29-.0689-9.4307-.07-1.9367,1.04-1.9773,2.453-1.987,1.4435-.01,2.47.0771,2.3661,2.0215-.1508,2.8149-.0521,5.6448-.0156,8.4676a4.3919,4.3919,0,0,0,4.1529,4.6386,4.6652,4.6652,0,0,0,4.43-4.4732c.0738-2.8817-.0091-5.77-.1065-8.6524-.04-1.1915.1219-2.1595,1.5613-1.9932,1.245.1439,3.23-.856,3.148,1.7765-.0562,1.7939-.0107,3.5911-.0107,5.3868Z"/>
          <path class="cls-1" d="M563.7532,115.7325q0-1.4409,0-2.8819c.0008-3.4969.0009-3.4974,3.5936-3.4969,2.0494,0,4.1033.0784,6.1454-.0419.6147-.0363,1.1969-.6217,1.7941-.9555-.6036-.3916-1.194-1.0942-1.8131-1.1206a76.812,76.812,0,0,0-7.8707.0329c-1.5277.0919-1.9073-.502-1.8925-1.8634.031-2.8567,0-2.8655,2.8691-2.8666,2.5617-.001,5.1243-.0366,7.6849.0178a5.6244,5.6244,0,0,1,5.85,5.7819c-.0246,3.2714-2.4849,5.6419-5.9556,5.7377-.128.0035-.2566-.0049-.3842.0031-1.6982.1058-4.0675-.4119-4.91.4924-.8861.951-.3506,3.2628-.3657,4.9806-.0227,2.5889-1.4806,3.65-3.9386,2.675a1.984,1.984,0,0,1-.7781-1.5016c-.0994-1.6591-.0365-3.3279-.0365-4.993Z"/>
          <path class="cls-1" d="M790.6082,87.1625V63.6454a68.9282,68.9282,0,0,0,5.1527,4.92,10.06,10.06,0,0,1,4.2108,10.121c-.3271,2.3266.0027,4.74-.11,7.1072-.0225.4725-.693,1.29-1.0929,1.3078C796.0954,87.2189,793.4148,87.1625,790.6082,87.1625Z"/>
          <path class="cls-1" d="M679.1724,291.9568a5.42,5.42,0,0,1-5.7187,5.5993,5.2178,5.2178,0,0,1-4.8225-5.23,5.29,5.29,0,0,1,5.2349-5.437C677.0163,286.9288,679.1609,288.9771,679.1724,291.9568Z"/>
          <path class="cls-1" d="M590.6738,107.2826c-2.4356,0-4.872-.036-7.3067.0129-1.5592.0314-1.6337-.9912-1.5182-2.0616.1135-1.0513-.676-2.6845,1.4247-2.6873,4.8735-.0064,9.7481.0742,14.62-.0173,2.2085-.0414,1.7559,1.38,1.8563,2.68.1158,1.5-.4282,2.0593-1.9578,1.9931-2.3686-.1027-4.7449-.0271-7.1179-.0271Z"/>
          <path class="cls-1" d="M593.0947,115.96c.0013,1.6032-.056,3.2091.0176,4.8089.0715,1.5545-.938,1.7134-2.0083,1.5552-1.0668-.1578-2.7953.7186-2.7627-1.562q.0687-4.8086-.0223-9.6189c-.04-1.9786,1.3227-1.6693,2.5121-1.6847,1.1743-.0154,2.3938-.1475,2.2825,1.6929C593.0169,112.7487,593.0934,114.3566,593.0947,115.96Z"/>
          <path class="cls-2" d="M692.2227,211.5122c-.2675,6.2606-.3447,11.3947-.7362,16.5047-.71,9.2634-1.3856,18.5835-4.6084,27.3917-2.7176,7.4274-6.6329,11.5551-13.8731,12.0583-6.9633.4839-11.7454-3.0619-14.8486-9.4709-2.6236-5.4185-3.6515-11.2984-4.5762-17.2023-2.2727-14.5115-2.173-29.1213-1.9513-43.739a128.6247,128.6247,0,0,1,3.5041-28.7428,38.4484,38.4484,0,0,1,5.241-12.307c6.3473-9.54,18.3839-8.324,23.7865,1.4486,3.6324,6.57,5.2038,13.7255,6.2729,21.0578C692.085,189.84,692.2692,201.2357,692.2227,211.5122Z"/>
          <path class="cls-2" d="M507.4932,371.39a47.1774,47.1774,0,0,1-1.0849,4.9017,3.51,3.51,0,0,1-3.418,2.5926,3.1318,3.1318,0,0,1-3.3475-2.35c-1.2948-4.2574-1.5592-8.5581.4018-12.7212.6948-1.4749,2.0743-1.8188,3.5932-1.5831a4.2087,4.2087,0,0,1,3.4108,3.4658C507.2386,367.3478,507.3136,369.0128,507.4932,371.39Z"/>
          <path class="cls-2" d="M494.4105,391.8682c4.9122,0,9.631-.0422,14.3483.0271a14.251,14.251,0,0,1,3.9532.6013c1.8084.5593,2.0606,2.083.7,3.3683-3.69,3.4841-12.0607,4.2913-16.4227,1.5836A5.2963,5.2963,0,0,1,494.4105,391.8682Z"/>
          <path class="cls-2" d="M770.74,311.82c-.3191,3.2991-.6049,6.6019-.97,9.8959a2.8984,2.8984,0,0,1-3.0241,2.8848,5.8843,5.8843,0,0,1-3.6879-1.79,9.0192,9.0192,0,0,1-1.7507-4.1677,25.4818,25.4818,0,0,1,.4344-12.523,9.0018,9.0018,0,0,1,1.7274-2.9211,3.9663,3.9663,0,0,1,7.1062,3.0322,51.874,51.874,0,0,0-.0418,5.5636Z"/>
          <path class="cls-2" d="M786.8922,363.7118c.4655-1.9427.8006-3.6976,1.3166-5.3977a3.6909,3.6909,0,0,1,3.7511-2.99,3.97,3.97,0,0,1,3.8932,3.1619c.7472,3.2826,1.0595,6.6656,1.5067,10.0129a1.9245,1.9245,0,0,1-.297,1.2558c-1.94,2.7307-7.2093,2.4172-8.6588-.6439A31.3818,31.3818,0,0,1,786.8922,363.7118Z"/>
          <path class="cls-2" d="M754.9535,363.7356c.4778-1.9977.8473-3.7406,1.3178-5.4558a3.8247,3.8247,0,0,1,7.3856-.3125c.8261,3.5909,1.21,7.2838,1.7528,10.9384a1.1739,1.1739,0,0,1-.2108.7072c-1.7052,2.7385-7.3429,2.6-8.6889-.3415A34.7608,34.7608,0,0,1,754.9535,363.7356Z"/>
          <path class="cls-2" d="M653.2618,374.5442a80.2688,80.2688,0,0,1-.078,8.8565c-.2551,2.2248-3.559,2.8789-5.4979,1.2932-3.0956-2.5318-2.0815-7.9842,1.8172-9.4354A23.3885,23.3885,0,0,1,653.2618,374.5442Z"/>
          <path class="cls-2" d="M446.169,374.7664c0,2.9379.11,5.7385-.0442,8.5244-.0828,1.4955-1.4271,2.0792-2.7345,2.23a3.8377,3.8377,0,0,1-3.9686-2.1252,5.3173,5.3173,0,0,1,.1521-5.8038C441.0334,375.3345,443.1964,374.526,446.169,374.7664Z"/>
          <path class="cls-2" d="M592.5084,374.1529c.6306-3.0106,1.0737-6.1707,1.9953-9.1844.6973-2.28,2.3049-3.04,4.442-2.8663a4.9669,4.9669,0,0,1,4.1527,3.7206,39.2568,39.2568,0,0,1,.1105,16.6,6.9033,6.9033,0,0,1-1.5775,3.0068c-2.26,2.532-6.3062,1.948-7.3039-1.27C593.3572,381.03,593.1157,377.6746,592.5084,374.1529Z"/>
          <path class="cls-2" d="M514.0313,312.5589c.5684-2.7305,1.0819-5.8033,1.8775-8.8013a3.7975,3.7975,0,0,1,4.0552-2.8756,4.2373,4.2373,0,0,1,4.2614,3.0231,24.255,24.255,0,0,1,1.1916,6.58,61.5556,61.5556,0,0,1-.8,10.4932,6.6074,6.6074,0,0,1-2.5623,4.021c-2.7423,1.7984-5.76.5176-6.5469-2.7235C514.774,319.2535,514.5478,316.1082,514.0313,312.5589Z"/>
          <path class="cls-2" d="M534.2316,374.8489c-4.9718.0563-4.5462.9731-4.0545-4.1633a31.078,31.078,0,0,1,1.4387-5.9125c.448-1.4819,1.5191-2.963,3.0715-2.5455a4.8561,4.8561,0,0,1,2.977,2.8513,45.3379,45.3379,0,0,1,1.1,8.319c.0346.4482-.763,1.2731-1.2908,1.3857A15.7893,15.7893,0,0,1,534.2316,374.8489Z"/>
          <path class="cls-2" d="M693.125,313.4978c.6834-3.3326,1.26-6.5227,2.0162-9.6695.3748-1.5593,1.33-3.005,3.12-2.9153,1.8095.0907,2.8427,1.62,3.1775,3.2.6334,2.9891.9453,6.0463,1.4363,9.3844Z"/>
          <path class="cls-2" d="M411.6193,313.6265h-9.0818c-.1651-3.9091.2332-7.6674,2.1341-11.1256a2.6339,2.6339,0,0,1,4.8686.072C411.2721,305.9485,411.39,309.6632,411.6193,313.6265Z"/>
          <path class="cls-2" d="M347.1675,374.9567c-4.9451-.0345-4.6422.8517-4.0791-4.4607a21.6529,21.6529,0,0,1,1.6377-6.0357,3.8659,3.8659,0,0,1,2.5122-2.21,3.6789,3.6789,0,0,1,2.7638,1.8694,27.5034,27.5034,0,0,1,1.4482,5.31,3.6373,3.6373,0,0,1,.045.574C351.8916,374.7485,351.8917,374.7485,347.1675,374.9567Z"/>
          <path class="cls-2" d="M610.4,117.6842a5.2308,5.2308,0,1,1-.1417-10.4607,5.4414,5.4414,0,0,1,5.3252,5.17A5.3233,5.3233,0,0,1,610.4,117.6842Z"/>
        </g>
        <g>
          <path class="cls-1" d="M228.3567,236.7946h0a5.9882,5.9882,0,0,1,5.4485,8.4595A97.9668,97.9668,0,0,1,96.4814,290.4769q-2.6923-1.5095-5.2729-3.1956A97.9938,97.9938,0,0,1,194.89,120.9981c24.427,14.6985,13.9835,52.2392-14.5248,52.2392h0a47.9587,47.9587,0,1,0-46.8087,78.4991c.4061.0941.8121.1824,1.2241.2648.2177.0471.4355.0883.6591.1295.2413.0471.4884.0941.7356.1353a.81.81,0,0,0,.1177.0177c.4178.0765.8357.1412,1.2594.2.4355.0647.8768.1236,1.3182.1707a.8166.8166,0,0,0,.1118.0117c.2942.0353.5885.0706.8886.0942.2472.0235.4944.047.7415.0647.5532.0471,1.1123.0824,1.6714.1.306.0177.612.03.9239.0353q.6179.0177,1.2358.0177a47.8306,47.8306,0,0,0,35.9216-16.1835h5.12v-2.9013a4.8837,4.8837,0,0,1,5.576-4.83,5.166,5.166,0,0,1,4.1812,4.9745v2.7569h6.803V216.8917a4.8786,4.8786,0,0,1,9.7572,0v19.9029H218.6V199.89a4.8838,4.8838,0,0,1,5.5762-4.83,5.1662,5.1662,0,0,1,4.181,4.9746Z"/>
          <path class="cls-2" d="M192.4057,205.016a50.6069,50.6069,0,0,1-78.8345,41.9948v51.0223a97.48,97.48,0,0,1-17.09-7.5562q-2.6923-1.5095-5.2729-3.1956V205.016a50.5986,50.5986,0,1,1,101.1972,0Z"/>
          <circle class="cls-1" cx="141.8071" cy="205.016" r="28.2359"/>
          <path class="cls-2" d="M152.9526,193.15h-8.9395a8.1229,8.1229,0,0,1,3.0342,5.5264h5.9053v2.71H147.101c-.542,5.5264-4.9306,9.0488-11.8662,9.2647,4.2266,4.39,8.8321,9.916,13.3838,15.497h-5.2021c-4.2266-5.0937-8.1817-9.8076-13.2744-15.2255v-3.3594h2.9794c5.8526,0,8.9952-2.4385,9.3741-6.1768H130.1421v-2.71h12.1914c-.7588-3.1426-3.6309-4.7139-8.3448-4.7139h-3.8466v-3.5215h22.81Z"/>
        </g>
      </g>
    </g>
  </g>
</svg>
